<svg width="82" height="93" viewBox="0 0 82 93" fill="none" xmlns="http://www.w3.org/2000/svg">
<path fill-rule="evenodd" clip-rule="evenodd" d="M43.7565 0.214844H32.6395H26.3281H19.8838C19.8838 0.214844 19.751 0.214844 19.5295 0.214844H17.7136C14.4582 0.214844 11.8008 2.89996 11.8008 6.18924V8.58347V12.1636V12.2084V12.3426V12.3874V12.5664V12.8797V13.2601V13.73V14.1998V14.2894V14.9159V15.2068V15.6095V16.2584V16.3703V17.1982V17.3549V18.0933V18.5184V19.0554V19.7267V20.0624V20.9798V21.1364V22.2552V22.2776V23.4188V23.5978V24.6271V24.9627V25.8801V26.35V27.1779V27.7821V28.5205V29.2589V29.9078V30.7581V31.3175V32.2573V32.7496V33.7789V34.2264V35.3452V35.7256V36.9115V37.2471V38.5002V38.7911V40.0889V40.3574V41.7V41.9237V43.2887V43.5124V44.8997V45.1011V45.7948V46.4884V46.6898V47.3835V48.0771V48.2785V49.6658V49.8896V51.2545V51.4783V52.8208V53.0894V54.3872V54.678V55.9311V56.2667V57.4527V57.8331V58.9519V59.3994V60.4287V60.921V61.8607V62.4201V63.2704V63.9193V64.6577V65.3962V66.0003V66.8282V67.2981V68.2155V68.5512V69.5805V69.7595V70.9007V70.923V72.0418V72.1985V73.1159V73.4515V74.1228V74.6598V75.085V75.8234V75.98V76.8079V76.9198V77.5687V77.9715V78.2624V78.8889V78.9784V79.4483V79.9182V80.2986V80.6118V80.7908V80.8356V80.9699V81.0146V84.5948V86.989C11.8008 90.2783 14.4582 92.9634 17.7136 92.9634H19.751H32.6617H25.4866H75.9337C79.189 92.9634 81.8465 90.2783 81.8465 86.989V45.8172V38.5449C81.8465 29.5722 74.162 29.1694 74.162 29.1694C74.162 29.1694 67.2527 29.1694 59.5683 29.1694C51.8838 29.1694 52.061 21.2035 52.061 21.2035C52.061 21.2035 52.061 18.2052 52.061 9.05337C52.061 -0.120796 43.7786 0.281972 43.7786 0.281972L43.7565 0.214844ZM46.2368 42.9083C46.2368 42.9083 46.0596 43.9152 45.6831 45.6158C45.3067 47.3163 44.9966 48.01 44.9966 48.01C44.9966 48.01 43.9337 45.1682 43.7565 41.7671C43.5793 38.3659 43.5793 37.001 44.2658 36.285C44.9523 35.5689 45.9489 37.4709 46.1925 38.2988C46.4361 39.1267 46.7461 40.9392 46.7461 40.9392C46.7461 40.9392 47.1669 39.0148 46.9897 37.2919C46.8125 35.5689 44.3766 35.5689 44.3766 35.5689C44.3766 35.5689 41.3869 35.5913 41.4534 37.8513C41.5198 40.1113 41.3648 41.4986 41.9627 44.7655C42.5385 48.0324 42.9814 49.912 43.2693 51.1426C43.2693 51.165 43.2914 51.2545 43.3357 51.3888C43.4243 51.7468 43.4686 51.9482 43.4686 51.9482C43.4686 51.9482 41.7191 56.222 37.733 64.2774C33.7468 72.3327 30.3143 76.6737 29.0741 77.9939C27.834 79.314 24.8887 81.1936 25.5752 79.3812C26.2617 77.5463 28.1883 74.906 29.8049 73.5858C31.4215 72.2656 32.6174 71.3258 32.6174 71.3258C32.6174 71.3258 33.1267 70.565 31.798 71.0797C30.4914 71.5943 27.5683 73.4739 25.6195 75.8681C23.6707 78.2624 23.2499 79.1574 24.18 80.1419C25.1101 81.1265 26.7267 81.5293 28.4098 80.6566C30.0928 79.7839 33.0824 76.696 34.3226 74.4808C35.5627 72.288 37.2458 69.4462 37.2458 69.4462C37.2458 69.4462 40.4347 68.126 45.2845 67.1191C50.1343 66.1122 53.9212 65.4409 54.6963 65.3066C56.2907 66.2017 56.4679 66.3807 59.8783 67.5443C63.2665 68.7078 65.4146 69.1777 67.2305 69.2448C69.0465 69.312 69.9544 68.1708 69.9544 67.7233C69.9544 67.2757 69.6001 66.8506 69.6001 66.8506C69.6001 66.8506 66.6769 67.947 62.4914 66.4031C58.306 64.8815 59.4797 65.2843 58.306 64.792C59.7897 64.6354 60.0555 64.5235 63.798 64.5235C67.5406 64.5235 69.9323 66.0451 69.6001 66.0451C70.5966 63.5166 65.7247 62.711 62.8015 62.711C59.8783 62.711 57.3094 63.1362 55.5157 63.4271C53.4561 62.2188 51.6624 60.4734 49.6029 58.0568C47.5433 55.6402 46.4582 53.0446 45.6167 50.6056C46.1925 48.01 46.724 44.7431 46.2368 42.8859V42.9083ZM52.6368 64.0536C51.0202 64.2997 49.6471 64.434 45.5503 65.7094C41.4534 66.9849 37.9544 68.2827 37.9544 68.2827C37.9544 68.2827 40.6119 63.4718 41.697 61.2342C42.7821 58.9966 44.3323 55.1927 44.598 54.5885C45.2402 55.8192 45.9932 57.117 47.4991 59.0414C49.0049 60.9657 50.843 62.7782 52.6589 64.0536H52.6368ZM79.9198 29.3708C78.5025 28.1177 76.288 26.9318 72.9662 26.9318C66.0568 26.9318 59.9447 26.9318 59.9447 26.9318C59.9447 26.9318 54.2312 26.7304 54.2312 19.9505C54.2312 13.1706 54.2312 7.97932 54.2312 7.97932C54.2312 7.97932 53.434 3.19085 51.8617 1.80354C50.2894 0.416228 57.3759 2.81046 62.115 7.57655C66.4333 11.9399 72.5676 17.4891 79.9198 28.7443V29.3484V29.3708Z" fill="#E31E24"/>
<path fill-rule="evenodd" clip-rule="evenodd" d="M79.8751 29.3488C78.4578 28.1181 76.2432 26.9098 72.9214 26.9098C66.0121 26.9098 59.9 26.9098 59.9 26.9098C59.9 26.9098 54.1865 26.7084 54.1865 19.9285C54.1865 13.1485 54.1865 7.9573 54.1865 7.9573C54.1865 7.9573 53.3892 3.16883 51.8169 1.78152C50.2446 0.394209 57.3311 2.78844 62.0702 7.55453C66.3886 11.9179 72.5228 17.4671 79.8751 28.7222V29.3264V29.3488Z" fill="url(#paint0_linear_2501_10668)"/>
<path d="M41.3869 12.2979H1.32605C0.677828 12.2979 0.152344 12.8288 0.152344 13.4838V27.7373C0.152344 28.3923 0.677828 28.9232 1.32605 28.9232H41.3869C42.0352 28.9232 42.5606 28.3923 42.5606 27.7373V13.4838C42.5606 12.8288 42.0352 12.2979 41.3869 12.2979Z" fill="#F4F3F3"/>
<path d="M41.3869 12.2979H1.32605C0.677828 12.2979 0.152344 12.8288 0.152344 13.4838V27.7373C0.152344 28.3923 0.677828 28.9232 1.32605 28.9232H41.3869C42.0352 28.9232 42.5606 28.3923 42.5606 27.7373V13.4838C42.5606 12.8288 42.0352 12.2979 41.3869 12.2979Z" stroke="black"/>
<path d="M7.26172 15.6542H12.333C13.4403 15.6542 14.2596 15.9227 14.8133 16.4597C15.3669 16.9968 15.6327 17.7352 15.6327 18.7197C15.6327 19.7266 15.3226 20.5098 14.7247 21.0692C14.1268 21.6286 13.2188 21.9195 11.9787 21.9195H10.3178V25.6115H7.26172V15.6542ZM10.3178 19.9057H11.0707C11.6686 19.9057 12.0673 19.7938 12.3109 19.5924C12.5545 19.391 12.6652 19.1225 12.6652 18.8092C12.6652 18.496 12.5545 18.2275 12.3551 18.0037C12.1558 17.7799 11.7572 17.6681 11.1814 17.6681H10.3178V19.8833V19.9057ZM17.2493 15.6542H21.7669C22.6527 15.6542 23.3835 15.7661 23.9372 16.0122C24.4908 16.2584 24.9337 16.6164 25.3102 17.0639C25.6645 17.5338 25.9302 18.0484 26.0852 18.6526C26.2403 19.2567 26.3288 19.9057 26.3288 20.5769C26.3288 21.651 26.2181 22.4565 25.9745 23.0607C25.7309 23.6424 25.3987 24.1347 24.978 24.5375C24.5572 24.9403 24.0922 25.2088 23.605 25.3206C22.9406 25.4997 22.3427 25.5892 21.7891 25.5892H17.2714V15.6318L17.2493 15.6542ZM20.2832 17.9142V23.3516H21.0361C21.6783 23.3516 22.1212 23.2844 22.4091 23.1278C22.6749 22.9935 22.8963 22.725 23.0513 22.3894C23.2064 22.0314 23.2728 21.4496 23.2728 20.6664C23.2728 19.6148 23.0956 18.8987 22.7634 18.496C22.4313 18.1156 21.8555 17.9142 21.0583 17.9142H20.3053H20.2832ZM27.9233 15.6542H35.4527V17.8023H30.9794V19.5476H34.8105V21.5615H30.9794V25.6115H27.9233V15.6542Z" fill="#FEFEFE"/>
<path d="M7.10547 15.498H12.1767C13.284 15.498 14.1034 15.7665 14.657 16.3035C15.2107 16.8405 15.4764 17.5789 15.4764 18.5635C15.4764 19.5704 15.1664 20.3536 14.5684 20.913C13.9705 21.4724 13.0626 21.7632 11.8224 21.7632H10.1615V25.4553H7.10547V15.498ZM10.1615 19.7494H10.9145C11.5124 19.7494 11.911 19.6375 12.1546 19.4361C12.3982 19.2348 12.5089 18.9662 12.5089 18.653C12.5089 18.3397 12.3982 18.0712 12.1989 17.8474C11.9996 17.6237 11.601 17.5118 11.0252 17.5118H10.1615V19.727V19.7494ZM17.093 15.498H21.6107C22.4965 15.498 23.2273 15.6098 23.7809 15.856C24.3345 16.1021 24.7774 16.4601 25.1539 16.9077C25.5082 17.3775 25.774 17.8922 25.929 18.4963C26.084 19.1005 26.1726 19.7494 26.1726 20.4207C26.1726 21.4947 26.0619 22.3003 25.8183 22.9044C25.5747 23.4862 25.2425 23.9785 24.8217 24.3812C24.401 24.784 23.9359 25.0525 23.4487 25.1644C22.7844 25.3434 22.1864 25.4329 21.6328 25.4329H17.1152V15.4756L17.093 15.498ZM20.1269 17.7579V23.1953H20.8799C21.5221 23.1953 21.965 23.1282 22.2529 22.9715C22.5186 22.8373 22.7401 22.5688 22.8951 22.2331C23.0501 21.8751 23.1165 21.2933 23.1165 20.5102C23.1165 19.4585 22.9394 18.7425 22.6072 18.3397C22.275 17.9593 21.6992 17.7579 20.902 17.7579H20.1491H20.1269ZM27.7671 15.498H35.2965V17.6461H30.8231V19.3914H34.6543V21.4052H30.8231V25.4553H27.7671V15.498Z" fill="#2B2A29"/>
<defs>
<linearGradient id="paint0_linear_2501_10668" x1="75.7425" y1="-0.540437" x2="54.0886" y2="30.0663" gradientUnits="userSpaceOnUse">
<stop stop-color="#A42421"/>
<stop offset="1" stop-color="#E31E24"/>
</linearGradient>
</defs>
</svg>
