<svg width="118" height="27" viewBox="0 0 118 27" fill="none" xmlns="http://www.w3.org/2000/svg">
<g clip-path="url(#clip0_2501_73166)">
<path d="M6.98911 26.1894L5.86485 26.635L3.92258 25.2802C3.84946 25.2871 3.74463 25.2899 3.60668 25.2899C2.67969 25.2899 1.93892 24.9771 1.383 24.3502C0.827075 23.7233 0.549805 22.8902 0.549805 21.8481C0.549805 20.806 0.825696 19.9812 1.37748 19.3557C1.92926 18.7288 2.66865 18.416 3.59564 18.416C4.52264 18.416 5.28824 18.7274 5.8345 19.3502C6.38077 19.9729 6.65252 20.806 6.65252 21.8481C6.65252 22.5926 6.50768 23.2403 6.21799 23.787C5.92831 24.335 5.52137 24.7363 4.99579 24.9937L6.98773 26.1908L6.98911 26.1894ZM2.1417 20.031C1.78994 20.4767 1.61475 21.0814 1.61475 21.8467C1.61475 22.612 1.79545 23.2182 2.15687 23.6666C2.51829 24.1149 3.0011 24.3391 3.60668 24.3391C4.21226 24.3391 4.71714 24.1177 5.06615 23.6762C5.41515 23.2348 5.58896 22.6245 5.58896 21.8467C5.58896 21.069 5.41239 20.4683 5.06201 20.0269C4.71025 19.5854 4.22192 19.364 3.5984 19.364C2.97489 19.364 2.49484 19.5868 2.14446 20.031H2.1417Z" fill="white"/>
<path d="M11.9188 20.1953H12.8844V25.2106H11.9188V24.3498C11.6553 24.9629 11.1366 25.2701 10.3614 25.2701C9.86891 25.2701 9.47714 25.1234 9.18746 24.83C8.89777 24.5366 8.75293 24.1325 8.75293 23.6177V20.1953H9.72959V23.3811C9.72959 23.7243 9.81373 23.9858 9.98065 24.1671C10.1489 24.3484 10.3807 24.4398 10.6759 24.4398C11.0511 24.4398 11.3518 24.3083 11.5781 24.044C11.8043 23.781 11.9188 23.4074 11.9188 22.9258V20.1953Z" fill="white"/>
<path d="M15.3117 21.3912V20.4515C15.6994 20.2273 16.2125 20.1152 16.8498 20.1152C18.1576 20.1152 18.8114 20.7518 18.8114 22.025V25.2108H17.8555V24.6171C17.5989 25.0392 17.1492 25.2495 16.505 25.2495C16.0318 25.2495 15.6525 25.1125 15.3655 24.8385C15.08 24.5645 14.9365 24.2171 14.9365 23.795C14.9365 23.3134 15.1172 22.9398 15.4786 22.6727C15.8401 22.4056 16.3463 22.2727 16.9974 22.2727H17.8251V21.9863C17.8251 21.6431 17.7423 21.3843 17.5782 21.2099C17.414 21.0355 17.1409 20.9483 16.7602 20.9483C16.2277 20.9483 15.7449 21.0964 15.3104 21.394L15.3117 21.3912ZM17.8251 22.9744H17.0761C16.7077 22.9744 16.4305 23.0477 16.2429 23.1917C16.0553 23.337 15.9615 23.521 15.9615 23.7452C15.9615 23.9694 16.0332 24.1576 16.178 24.2891C16.3229 24.4206 16.5326 24.487 16.8084 24.487C17.1243 24.487 17.3726 24.3998 17.5534 24.2254C17.7341 24.0511 17.8251 23.8213 17.8251 23.5376V22.9744Z" fill="white"/>
<path d="M21.0986 25.2111V18.2168H22.0753V25.2111H21.0986Z" fill="white"/>
<path d="M24.5142 19.0917C24.3997 18.9769 24.3418 18.8329 24.3418 18.6613C24.3418 18.4897 24.3997 18.3444 24.5142 18.2254C24.6287 18.1064 24.7722 18.0469 24.9432 18.0469C25.1143 18.0469 25.2591 18.1064 25.3778 18.2254C25.4964 18.3444 25.5557 18.4897 25.5557 18.6613C25.5557 18.8329 25.4964 18.9686 25.3778 19.0862C25.2591 19.2052 25.1143 19.2647 24.9432 19.2647C24.7722 19.2647 24.6287 19.2066 24.5142 19.0917ZM24.4604 25.2114V20.1961H25.4371V25.2114H24.4604Z" fill="white"/>
<path d="M29.0353 20.9464V23.7059C29.0353 24.1875 29.2657 24.4283 29.7251 24.4283C29.9941 24.4283 30.2217 24.3563 30.4051 24.211V25.0815C30.1886 25.2005 29.9223 25.26 29.6064 25.26C28.5746 25.26 28.0587 24.7355 28.0587 23.6865V20.9464H27.2793V20.1949H28.0587V18.9688H29.0353V20.1949H30.3472V20.9464H29.0353Z" fill="white"/>
<path d="M33.7996 25.1013L31.8076 20.1953H32.8822L33.503 21.8269L34.2824 23.9443C34.3417 23.7464 34.5776 23.0406 34.9928 21.8269L35.5542 20.1953H36.5792L34.7748 25.0722C34.2948 26.3578 33.5623 27.0014 32.576 27.0014C32.398 27.0014 32.2477 26.9848 32.1221 26.9515V26.1212C32.227 26.1475 32.3387 26.1613 32.4573 26.1613C33.0947 26.1613 33.5416 25.8084 33.7982 25.1026L33.7996 25.1013Z" fill="white"/>
<path d="M46.5472 18.8204V19.8196C46.2575 19.6618 45.9968 19.5511 45.7637 19.4875C45.5306 19.4252 45.2326 19.3934 44.8712 19.3934C44.2077 19.3934 43.6531 19.6189 43.2103 20.0715C42.7661 20.5226 42.5454 21.1219 42.5454 21.8664C42.5454 22.6109 42.7661 23.2282 43.2062 23.6766C43.6462 24.1249 44.2283 24.3491 44.9512 24.3491C45.5885 24.3491 46.1251 24.1844 46.5582 23.8551V24.8847C46.1513 25.1546 45.5857 25.2902 44.8629 25.2902C43.8697 25.2902 43.0586 24.9802 42.4268 24.3602C41.7964 23.7402 41.4805 22.9099 41.4805 21.8678C41.4805 20.8257 41.7977 20.0383 42.4323 19.4044C43.0668 18.772 43.8697 18.4551 44.8436 18.4551C45.554 18.4551 46.1223 18.5769 46.55 18.8204H46.5472Z" fill="white"/>
<path d="M51.7254 20.1953H52.6924V25.2106H51.7254V24.3498C51.4619 24.9629 50.9433 25.2701 50.168 25.2701C49.6756 25.2701 49.2838 25.1234 48.9941 24.83C48.7044 24.5366 48.5596 24.1325 48.5596 23.6177V20.1953H49.5362V23.3811C49.5362 23.7243 49.6204 23.9858 49.7873 24.1671C49.9556 24.3484 50.1873 24.4398 50.4825 24.4398C50.8577 24.4398 51.1585 24.3083 51.3847 24.044C51.6109 23.781 51.7254 23.4074 51.7254 22.9258V20.1953Z" fill="white"/>
<path d="M55.0381 25.2111V18.2168H56.0147V25.2111H55.0381Z" fill="white"/>
<path d="M59.6135 20.9483V23.7078C59.6135 24.1894 59.8438 24.4302 60.3032 24.4302C60.5722 24.4302 60.7998 24.3582 60.9833 24.2129V25.0834C60.7667 25.2024 60.5005 25.2619 60.1846 25.2619C59.1527 25.2619 58.6368 24.7374 58.6368 23.6884V20.9483H57.8574V20.1968H58.6368V18.9707H59.6135V20.1968H60.9253V20.9483H59.6135Z" fill="white"/>
<path d="M66.1014 20.1953H67.0684V25.2106H66.1014V24.3498C65.8379 24.9629 65.3192 25.2701 64.544 25.2701C64.0515 25.2701 63.6598 25.1234 63.3701 24.83C63.0804 24.5366 62.9355 24.1325 62.9355 23.6177V20.1953H63.9122V23.3811C63.9122 23.7243 63.9963 23.9858 64.1633 24.1671C64.3316 24.3484 64.5633 24.4398 64.8585 24.4398C65.2337 24.4398 65.5344 24.3083 65.7607 24.044C65.9869 23.781 66.1014 23.4074 66.1014 22.9258V20.1953Z" fill="white"/>
<path d="M70.3402 20.1944V21.0745C70.583 20.4545 71.0203 20.1445 71.6521 20.1445C71.7445 20.1445 71.8452 20.1542 71.9583 20.1736V21.123C71.8204 21.0634 71.6659 21.0344 71.4948 21.0344C71.1596 21.0344 70.8837 21.1825 70.6671 21.48C70.4506 21.7775 70.3416 22.1291 70.3416 22.5387V25.2096H69.376V20.1944H70.3416H70.3402Z" fill="white"/>
<path d="M77.3918 24.0734V24.9438C77.0235 25.1556 76.538 25.2608 75.9324 25.2608C75.1571 25.2608 74.5391 25.0269 74.0784 24.5577C73.6177 24.09 73.3887 23.4755 73.3887 22.7171C73.3887 21.9131 73.5984 21.2806 74.0191 20.8226C74.4398 20.3645 74.975 20.1348 75.6261 20.1348C76.2773 20.1348 76.7697 20.334 77.1449 20.7326C77.5201 21.1312 77.7064 21.7069 77.7064 22.4583C77.7064 22.6632 77.6871 22.8777 77.6471 23.1019H74.3639C74.4302 23.5378 74.6136 23.8699 74.9157 24.101C75.2178 24.3322 75.5999 24.447 76.0593 24.447C76.5918 24.447 77.036 24.3211 77.3905 24.0706L77.3918 24.0734ZM76.7711 22.3435V22.165C76.7573 21.7885 76.6566 21.491 76.4649 21.2696C76.2745 21.0481 76.0014 20.9388 75.6468 20.9388C75.3185 20.9388 75.0357 21.0592 74.7985 21.3C74.5612 21.5408 74.4136 21.8882 74.3543 22.3435H76.7697H76.7711Z" fill="white"/>
<path d="M5.04115 3.73242C3.78171 3.73242 2.73194 4.1725 1.89323 5.05267C1.05314 5.93422 0.633789 7.14652 0.633789 8.69096C0.633789 10.1454 1.07935 11.3328 1.9691 12.2517C2.85885 13.1707 4.07415 13.6301 5.61363 13.6301C6.88549 13.6301 7.85938 13.4198 8.53256 12.9991V11.0076C7.83317 11.5183 6.97377 11.7729 5.95711 11.7729C5.16806 11.7729 4.51006 11.5875 3.98173 11.218C3.4534 10.8485 3.10715 10.3115 2.94162 9.60987H9.00985C9.09813 9.048 9.14366 8.58855 9.14366 8.2315C9.14366 6.76456 8.77396 5.64775 8.03733 4.88106C7.29932 4.11576 6.3006 3.73242 5.04115 3.73242ZM6.96825 7.88691H2.90437C3.01887 7.12161 3.27683 6.5376 3.67687 6.13488C4.07691 5.73355 4.55145 5.5315 5.09909 5.5315C5.6964 5.5315 6.15162 5.71971 6.46337 6.09613C6.77513 6.47256 6.94342 6.97353 6.96963 7.59905V7.88552L6.96825 7.88691Z" fill="white"/>
<path d="M14.1041 0H11.8142V13.5346H14.1041V0Z" fill="white"/>
<path d="M18.3984 0.0507812C18.0162 0.0507812 17.6921 0.18502 17.4258 0.452114C17.1582 0.720592 17.0244 1.04581 17.0244 1.42777C17.0244 1.80973 17.1582 2.1557 17.4258 2.4228C17.6935 2.69127 18.0176 2.82413 18.3984 2.82413C18.7791 2.82413 19.1046 2.68989 19.3709 2.4228C19.6385 2.15432 19.7709 1.82356 19.7709 1.42777C19.7709 1.03197 19.6371 0.719208 19.3709 0.452114C19.1033 0.183636 18.7791 0.0507812 18.3984 0.0507812Z" fill="white"/>
<path d="M19.5428 3.83008H17.2529V13.5354H19.5428V3.83008Z" fill="white"/>
<path d="M25.5643 0.753906H23.3489V3.53279H21.5391V5.28343H23.3489V9.45037C23.3489 10.0192 23.3544 10.5284 23.3668 10.9782C23.3793 11.4294 23.4993 11.8708 23.7269 12.3026C23.9848 12.7787 24.3642 13.126 24.8622 13.3447C25.3602 13.5633 25.9257 13.681 26.5561 13.6962C27.1866 13.7114 27.8308 13.6574 28.4901 13.5343V11.6632C27.868 11.756 27.3148 11.7809 26.8279 11.738C26.3423 11.6951 25.9878 11.4875 25.7657 11.118C25.6485 10.927 25.585 10.6793 25.5767 10.3776C25.5671 10.0745 25.5629 9.723 25.5629 9.32167V5.28343H28.4888V3.53279H25.5629V0.753906H25.5643Z" fill="white"/>
<path d="M34.8537 3.73185C33.5942 3.73185 32.5444 4.17193 31.7057 5.0521C30.8656 5.93226 30.4463 7.14456 30.4463 8.689C30.4463 10.1435 30.8919 11.3309 31.7816 12.2498C32.6714 13.1687 33.8867 13.6282 35.4261 13.6282C36.698 13.6282 37.6705 13.4178 38.3451 12.9971V11.0057C37.6457 11.5163 36.7863 11.771 35.7696 11.771C34.9806 11.771 34.3226 11.5855 33.7942 11.216C33.2659 10.8465 32.9197 10.3096 32.7541 9.60792H38.8223C38.9106 9.04605 38.9562 8.58659 38.9562 8.22955C38.9562 6.76261 38.5865 5.64579 37.8498 4.87911C37.1118 4.11381 36.1131 3.73047 34.8537 3.73047V3.73185ZM36.7808 7.88634H32.7169C32.8314 7.12104 33.0893 6.53703 33.4894 6.13431C33.8894 5.73298 34.3639 5.53093 34.9102 5.53093C35.5075 5.53093 35.9627 5.71914 36.2745 6.09556C36.5862 6.47199 36.7545 6.97296 36.7808 7.59848V7.88495V7.88634Z" fill="white"/>
<path d="M52.1783 3.71289C51.53 3.71289 50.9506 3.87204 50.4416 4.19172C49.9325 4.5114 49.5504 4.96394 49.2966 5.55072C48.8773 4.32596 47.9613 3.71289 46.5487 3.71289C45.2769 3.71289 44.3664 4.2623 43.8202 5.35974V3.82775H41.5303V13.5331H43.8202V8.32545C43.8202 7.39408 44.0174 6.71181 44.412 6.27727C44.8065 5.84411 45.252 5.62683 45.7473 5.62683C46.7391 5.62683 47.2357 6.27727 47.2357 7.57952V13.5331H49.5449V8.32545C49.5449 7.39408 49.7394 6.71181 50.1271 6.27727C50.5147 5.84411 50.9575 5.62683 51.4527 5.62683C52.4445 5.62683 52.9411 6.27727 52.9411 7.57952V13.5331H55.2504V7.13944C55.2504 6.042 54.9827 5.19644 54.4489 4.60274C53.915 4.00905 53.1577 3.71289 52.1783 3.71289Z" fill="white"/>
<path d="M61.9855 3.73185C60.726 3.73185 59.6763 4.17193 58.8376 5.0521C57.9975 5.93226 57.5781 7.14456 57.5781 8.689C57.5781 10.1435 58.0237 11.3309 58.9134 12.2498C59.8032 13.1687 61.0185 13.6282 62.558 13.6282C63.8298 13.6282 64.8023 13.4178 65.4769 12.9971V11.0057C64.7775 11.5163 63.9181 11.771 62.9014 11.771C62.1124 11.771 61.4544 11.5855 60.9261 11.216C60.3977 10.8465 60.0515 10.3096 59.886 9.60792H65.9542C66.0425 9.04605 66.088 8.58659 66.088 8.22955C66.088 6.76261 65.7183 5.64579 64.9817 4.87911C64.2437 4.11381 63.2449 3.73047 61.9855 3.73047V3.73185ZM63.9126 7.88634H59.8487C59.9632 7.12104 60.2212 6.53703 60.6212 6.13431C61.0212 5.73298 61.4958 5.53093 62.042 5.53093C62.6394 5.53093 63.0946 5.71914 63.4063 6.09556C63.7181 6.47199 63.8864 6.97296 63.9126 7.59848V7.88495V7.88634Z" fill="white"/>
<path d="M75.2282 5.32112C74.5537 4.23614 73.5867 3.69364 72.3272 3.69364C71.0678 3.69364 70.1035 4.14341 69.3214 5.04295C68.5392 5.94249 68.1475 7.15894 68.1475 8.68954C68.1475 10.0679 68.5199 11.2415 69.2634 12.2116C70.007 13.1817 71.0154 13.6661 72.2872 13.6661C73.5591 13.6661 74.5647 13.118 75.2255 12.0192V13.5318H77.5154V0H75.2255V5.32112H75.2282ZM74.5412 10.9024C74.0833 11.4324 73.5108 11.6968 72.8238 11.6968C72.1368 11.6968 71.6085 11.4228 71.1643 10.8733C70.7188 10.3253 70.4967 9.60984 70.4967 8.72968C70.4967 7.75956 70.7229 7.00395 71.174 6.46146C71.6251 5.91896 72.1824 5.64772 72.8431 5.64772C73.4666 5.64772 74.0198 5.89405 74.5026 6.38534C74.9854 6.87663 75.2282 7.61425 75.2282 8.59682C75.2282 9.5794 74.9992 10.3738 74.5412 10.9038V10.9024Z" fill="white"/>
<path d="M81.7157 0.0507812C81.3336 0.0507812 81.0095 0.18502 80.7432 0.452114C80.4756 0.720592 80.3418 1.04581 80.3418 1.42777C80.3418 1.80973 80.4756 2.1557 80.7432 2.4228C81.0108 2.69127 81.335 2.82413 81.7157 2.82413C82.0965 2.82413 82.422 2.68989 82.6883 2.4228C82.9559 2.15432 83.0883 1.82356 83.0883 1.42777C83.0883 1.03197 82.9545 0.719208 82.6883 0.452114C82.4206 0.183636 82.0965 0.0507812 81.7157 0.0507812Z" fill="white"/>
<path d="M82.8602 3.83008H80.5703V13.5354H82.8602V3.83008Z" fill="white"/>
<path d="M86.782 5.13027C85.873 6.10038 85.4109 7.29331 85.3984 8.71043C85.3984 10.1525 85.8592 11.3454 86.782 12.2906C87.7049 13.2358 88.9092 13.7077 90.3976 13.7077C91.4018 13.7077 92.2419 13.5098 92.9165 13.114V11.1226C92.2419 11.5571 91.5108 11.773 90.7218 11.773C89.8182 11.773 89.1023 11.4921 88.5753 10.9302C88.047 10.3684 87.7711 9.62796 87.7449 8.70905C87.7573 7.77768 88.0373 7.03037 88.585 6.46989C89.1312 5.90802 89.8499 5.62709 90.7411 5.62709C91.555 5.62709 92.2805 5.83191 92.9165 6.24016V4.21135C92.2543 3.85431 91.4529 3.67578 90.5121 3.67578C88.934 3.67578 87.6911 4.16153 86.782 5.13027Z" fill="white"/>
<path d="M98.7359 3.65568C97.3743 3.65568 96.3315 3.87849 95.6059 4.32549V6.44979C96.4708 5.87547 97.4185 5.589 98.4489 5.589C99.1235 5.589 99.6008 5.73016 99.8794 6.0097C100.159 6.29064 100.299 6.69889 100.299 7.23446V7.82816H98.8862C97.5882 7.82816 96.5963 8.08972 95.9094 8.61283C95.2224 9.13595 94.8789 9.85696 94.8789 10.7759C94.8789 11.5924 95.1493 12.2691 95.69 12.8047C96.2308 13.3403 96.9591 13.6087 97.8751 13.6087C99.1083 13.6087 99.9484 13.1936 100.394 12.3646V13.5326H102.665V7.32995C102.665 4.87905 101.354 3.6543 98.7345 3.6543L98.7359 3.65568ZM100.3 10.2791C100.3 10.7648 100.157 11.1564 99.8712 11.4568C99.5842 11.7571 99.1869 11.9065 98.6779 11.9065C97.7358 11.9065 97.2654 11.4983 97.2654 10.6818C97.2654 10.2984 97.424 9.9829 97.7427 9.73379C98.0599 9.48469 98.5179 9.36014 99.1166 9.36014H100.3V10.2791Z" fill="white"/>
<path d="M117.552 3.86613V6.09837H113.759V9.88197H111.472V6.09837H107.742V3.86613H111.472V0.0410156H113.759V3.86613H117.552Z" fill="#C0D200"/>
</g>
<defs>
<clipPath id="clip0_2501_73166">
<rect width="117" height="27" fill="white" transform="translate(0.549805)"/>
</clipPath>
</defs>
</svg>
