<svg width="209" height="49" viewBox="0 0 209 49" fill="none" xmlns="http://www.w3.org/2000/svg">
<g clip-path="url(#clip0_2757_524)">
<path d="M12.0443 46.6954L10.0457 47.4876L6.59272 45.0789C6.46274 45.0912 6.27636 45.0962 6.03113 45.0962C4.38313 45.0962 3.06621 44.5401 2.07791 43.4256C1.08961 42.3111 0.59668 40.83 0.59668 38.9775C0.59668 37.1249 1.08715 35.6585 2.0681 34.5465C3.04905 33.432 4.36352 32.876 6.01151 32.876C7.6595 32.876 9.02056 33.4295 9.9917 34.5367C10.9628 35.6438 11.446 37.1249 11.446 38.9775C11.446 40.3011 11.1885 41.4525 10.6735 42.4243C10.1585 43.3986 9.43501 44.1121 8.50066 44.5697L12.0419 46.6978L12.0443 46.6954ZM3.42671 35.7471C2.80136 36.5393 2.48991 37.6145 2.48991 38.975C2.48991 40.3355 2.81117 41.4131 3.45369 42.2103C4.09621 43.0074 4.95454 43.406 6.03113 43.406C7.10772 43.406 8.00528 43.0123 8.62573 42.2275C9.24618 41.4427 9.55518 40.3577 9.55518 38.975C9.55518 37.5923 9.24127 36.5246 8.61837 35.7397C7.99302 34.9549 7.12488 34.5613 6.01641 34.5613C4.90794 34.5613 4.05452 34.9574 3.43162 35.7471H3.42671Z" fill="#0083BB"/>
<path d="M20.8079 36.0371H22.5245V44.9532H20.8079V43.4229C20.3395 44.5128 19.4174 45.0589 18.0391 45.0589C17.1637 45.0589 16.4672 44.7982 15.9522 44.2766C15.4372 43.755 15.1797 43.0366 15.1797 42.1214V36.0371H16.916V41.7007C16.916 42.3108 17.0656 42.7758 17.3623 43.0981C17.6615 43.4204 18.0735 43.5828 18.5983 43.5828C19.2653 43.5828 19.7999 43.3491 20.2021 42.8791C20.6043 42.4117 20.8079 41.7474 20.8079 40.8912V36.0371Z" fill="#0083BB"/>
<path d="M26.8394 38.1649V36.4943C27.5285 36.0958 28.4408 35.8965 29.5738 35.8965C31.8986 35.8965 33.0611 37.0282 33.0611 39.2917V44.9552H31.3616V43.8998C30.9054 44.6501 30.106 45.0241 28.9607 45.0241C28.1195 45.0241 27.4451 44.7805 26.935 44.2934C26.4274 43.8063 26.1724 43.1887 26.1724 42.4384C26.1724 41.5822 26.4936 40.9179 27.1361 40.4431C27.7787 39.9682 28.6787 39.7321 29.8362 39.7321H31.3076V39.2228C31.3076 38.6126 31.1605 38.1526 30.8686 37.8426C30.5768 37.5326 30.0912 37.3776 29.4144 37.3776C28.4678 37.3776 27.6095 37.6408 26.837 38.1698L26.8394 38.1649ZM31.3076 40.9794H29.976C29.3212 40.9794 28.8283 41.1098 28.4948 41.3657C28.1612 41.624 27.9945 41.9512 27.9945 42.3498C27.9945 42.7484 28.122 43.083 28.3795 43.3167C28.637 43.5504 29.0098 43.6685 29.5002 43.6685C30.0618 43.6685 30.5032 43.5135 30.8245 43.2035C31.1458 42.8935 31.3076 42.4851 31.3076 41.9807V40.9794Z" fill="#0083BB"/>
<path d="M37.127 44.9557V32.5215H38.8632V44.9557H37.127Z" fill="#0083BB"/>
<path d="M43.2006 34.0763C42.997 33.8721 42.894 33.6162 42.894 33.3111C42.894 33.006 42.997 32.7477 43.2006 32.5361C43.4041 32.3245 43.6592 32.2188 43.9633 32.2188C44.2674 32.2188 44.5249 32.3245 44.7358 32.5361C44.9467 32.7477 45.0521 33.006 45.0521 33.3111C45.0521 33.6162 44.9467 33.8573 44.7358 34.0664C44.5249 34.278 44.2674 34.3838 43.9633 34.3838C43.6592 34.3838 43.4041 34.2805 43.2006 34.0763ZM43.1049 44.9556V36.0396H44.8412V44.9556H43.1049Z" fill="#0083BB"/>
<path d="M51.2381 37.3751V42.2809C51.2381 43.1371 51.6476 43.5652 52.4643 43.5652C52.9425 43.5652 53.3471 43.4372 53.6733 43.1789V44.7264C53.2883 44.938 52.8149 45.0438 52.2534 45.0438C50.419 45.0438 49.5018 44.1113 49.5018 42.2465V37.3751H48.1162V36.0392H49.5018V33.8594H51.2381V36.0392H53.5703V37.3751H51.2381Z" fill="#0083BB"/>
<path d="M59.7067 44.7617L56.1655 36.04H58.0759L59.1795 38.9407L60.5651 42.7049C60.6705 42.3531 61.0899 41.0984 61.828 38.9407L62.8262 36.04H64.6483L61.4406 44.7101C60.5871 46.9957 59.2849 48.1397 57.5315 48.1397C57.2151 48.1397 56.9478 48.1102 56.7247 48.0511V46.5749C56.911 46.6217 57.1097 46.6463 57.3206 46.6463C58.4536 46.6463 59.2482 46.0189 59.7043 44.7642L59.7067 44.7617Z" fill="#0083BB"/>
<path d="M82.3703 33.5938V35.3702C81.8553 35.0897 81.3918 34.8929 80.9774 34.7797C80.5629 34.669 80.0332 34.6124 79.3907 34.6124C78.2111 34.6124 77.2253 35.0134 76.4381 35.8179C75.6484 36.62 75.256 37.6853 75.256 39.0089C75.256 40.3325 75.6484 41.4298 76.4307 42.227C77.213 43.0241 78.2479 43.4227 79.533 43.4227C80.6659 43.4227 81.6199 43.1299 82.39 42.5443V44.3748C81.6665 44.8545 80.661 45.0956 79.376 45.0956C77.6103 45.0956 76.1683 44.5445 75.0451 43.4423C73.9244 42.3401 73.3628 40.864 73.3628 39.0114C73.3628 37.1588 73.9268 35.7589 75.0549 34.6321C76.183 33.5077 77.6103 32.9443 79.3417 32.9443C80.6046 32.9443 81.615 33.1608 82.3752 33.5938H82.3703Z" fill="#0083BB"/>
<path d="M91.575 36.0371H93.2941V44.9532H91.575V43.4229C91.1066 44.5128 90.1845 45.0589 88.8062 45.0589C87.9307 45.0589 87.2343 44.7982 86.7193 44.2766C86.2043 43.755 85.9468 43.0366 85.9468 42.1214V36.0371H87.6831V41.7007C87.6831 42.3108 87.8326 42.7758 88.1294 43.0981C88.4286 43.4204 88.8406 43.5828 89.3654 43.5828C90.0324 43.5828 90.567 43.3491 90.9692 42.8791C91.3714 42.4117 91.575 41.7474 91.575 40.8912V36.0371Z" fill="#0083BB"/>
<path d="M97.4644 44.9557V32.5215H99.2006V44.9557H97.4644Z" fill="#0083BB"/>
<path d="M105.598 37.3761V42.2819C105.598 43.1381 106.008 43.5661 106.825 43.5661C107.303 43.5661 107.707 43.4382 108.034 43.1799V44.7274C107.649 44.939 107.175 45.0448 106.614 45.0448C104.779 45.0448 103.862 44.1123 103.862 42.2474V37.3761H102.477V36.0402H103.862V33.8604H105.598V36.0402H107.931V37.3761H105.598Z" fill="#0083BB"/>
<path d="M117.134 36.0371H118.853V44.9532H117.134V43.4229C116.665 44.5128 115.743 45.0589 114.365 45.0589C113.489 45.0589 112.793 44.7982 112.278 44.2766C111.763 43.755 111.505 43.0366 111.505 42.1214V36.0371H113.242V41.7007C113.242 42.3108 113.391 42.7758 113.688 43.0981C113.987 43.4204 114.399 43.5828 114.924 43.5828C115.591 43.5828 116.126 43.3491 116.528 42.8791C116.93 42.4117 117.134 41.7474 117.134 40.8912V36.0371Z" fill="#0083BB"/>
<path d="M124.669 36.0368V37.6015C125.101 36.4993 125.878 35.9482 127.001 35.9482C127.166 35.9482 127.345 35.9655 127.546 35.9999V37.6877C127.301 37.5819 127.026 37.5302 126.722 37.5302C126.126 37.5302 125.636 37.7935 125.25 38.3224C124.865 38.8514 124.672 39.4763 124.672 40.2045V44.9529H122.955V36.0368H124.672H124.669Z" fill="#0083BB"/>
<path d="M137.204 42.9307V44.4782C136.549 44.8546 135.686 45.0416 134.61 45.0416C133.231 45.0416 132.133 44.6258 131.314 43.7918C130.494 42.9602 130.087 41.8678 130.087 40.5196C130.087 39.0902 130.46 37.9658 131.208 37.1515C131.956 36.3371 132.908 35.9287 134.065 35.9287C135.223 35.9287 136.098 36.283 136.765 36.9916C137.432 37.7001 137.763 38.7236 137.763 40.0595C137.763 40.4236 137.729 40.805 137.658 41.2035H131.821C131.939 41.9785 132.265 42.569 132.802 42.9799C133.339 43.3907 134.019 43.5949 134.835 43.5949C135.782 43.5949 136.571 43.371 137.202 42.9257L137.204 42.9307ZM136.101 39.8553V39.5379C136.076 38.8687 135.897 38.3398 135.556 37.9461C135.218 37.5525 134.732 37.3581 134.102 37.3581C133.518 37.3581 133.016 37.5722 132.594 38.0003C132.172 38.4284 131.91 39.0459 131.804 39.8553H136.098H136.101Z" fill="#0083BB"/>
<path d="M8.58092 6.77246C6.34191 6.77246 4.47566 7.55483 2.98462 9.11956C1.49112 10.6868 0.745605 12.842 0.745605 15.5876C0.745605 18.1734 1.53772 20.2843 3.1195 21.9179C4.70127 23.5515 6.86181 24.3684 9.59865 24.3684C11.8597 24.3684 13.5911 23.9944 14.7879 23.2465V19.7061C13.5445 20.614 12.0167 21.0667 10.2093 21.0667C8.80654 21.0667 7.63676 20.737 6.6975 20.0801C5.75824 19.4232 5.1427 18.4686 4.84842 17.2213H15.6364C15.7933 16.2224 15.8743 15.4056 15.8743 14.7708C15.8743 12.1629 15.217 10.1775 13.9075 8.81449C12.5954 7.45396 10.8199 6.77246 8.58092 6.77246ZM12.0069 14.1582H4.7822C4.98575 12.7977 5.44434 11.7594 6.15553 11.0435C6.86671 10.33 7.71033 9.97082 8.68392 9.97082C9.74579 9.97082 10.5551 10.3054 11.1093 10.9746C11.6635 11.6438 11.9627 12.5344 12.0093 13.6465V14.1558L12.0069 14.1582Z" fill="#0083BB"/>
<path d="M24.693 0.136719H20.6221V24.1982H24.693V0.136719Z" fill="#0083BB"/>
<path d="M32.3273 0.228516C31.648 0.228516 31.0717 0.467162 30.5984 0.941996C30.1226 1.41929 29.8848 1.99745 29.8848 2.67649C29.8848 3.35553 30.1226 3.9706 30.5984 4.44543C31.0742 4.92272 31.6505 5.15891 32.3273 5.15891C33.0042 5.15891 33.5829 4.92026 34.0562 4.44543C34.532 3.96814 34.7674 3.38013 34.7674 2.67649C34.7674 1.97285 34.5295 1.41683 34.0562 0.941996C33.5805 0.464702 33.0042 0.228516 32.3273 0.228516Z" fill="#0083BB"/>
<path d="M34.3619 6.94434H30.291V24.1983H34.3619V6.94434Z" fill="#0083BB"/>
<path d="M45.0671 1.47754H41.1286V6.41778H37.9111V9.53002H41.1286V16.9379C41.1286 17.9491 41.1384 18.8545 41.1605 19.6541C41.1826 20.4561 41.3959 21.2409 41.8006 22.0085C42.2592 22.8549 42.9336 23.4724 43.8189 23.8611C44.7042 24.2499 45.7097 24.459 46.8304 24.486C47.9511 24.5131 49.0964 24.4172 50.2686 24.1982V20.8719C49.1626 21.0367 48.1792 21.081 47.3135 21.0048C46.4503 20.9285 45.82 20.5594 45.4252 19.9025C45.2167 19.563 45.1039 19.1226 45.0892 18.5863C45.072 18.0475 45.0647 17.4226 45.0647 16.7091V9.53002H50.2662V6.41778H45.0647V1.47754H45.0671Z" fill="#0083BB"/>
<path d="M61.5799 6.77199C59.3409 6.77199 57.4747 7.55436 55.9836 9.1191C54.4901 10.6838 53.7446 12.839 53.7446 15.5847C53.7446 18.1705 54.5367 20.2814 56.1185 21.915C57.7003 23.5486 59.8608 24.3654 62.5977 24.3654C64.8588 24.3654 66.5877 23.9915 67.7869 23.2435V19.7032C66.5435 20.611 65.0157 21.0637 63.2083 21.0637C61.8056 21.0637 60.6358 20.7341 59.6965 20.0772C58.7573 19.4203 58.1417 18.4657 57.8474 17.2183H68.6354C68.7924 16.2195 68.8733 15.4026 68.8733 14.7679C68.8733 12.16 68.216 10.1746 66.9065 8.81156C65.5945 7.45103 63.819 6.76953 61.5799 6.76953V6.77199ZM65.0059 14.1577H57.7812C57.9848 12.7972 58.4434 11.759 59.1546 11.043C59.8657 10.3296 60.7094 9.97035 61.6805 9.97035C62.7424 9.97035 63.5516 10.3049 64.1059 10.9741C64.6601 11.6433 64.9593 12.534 65.0059 13.646V14.1553V14.1577Z" fill="#0083BB"/>
<path d="M92.38 6.7373C91.2274 6.7373 90.1974 7.02024 89.2925 7.58856C88.3876 8.15688 87.7083 8.9614 87.257 10.0046C86.5115 7.82721 84.8831 6.7373 82.3719 6.7373C80.1108 6.7373 78.4923 7.71403 77.5211 9.66503V6.94151H73.4502V24.1954H77.5211V14.9374C77.5211 13.2816 77.8718 12.0687 78.5732 11.2962C79.2746 10.5261 80.0667 10.1399 80.9471 10.1399C82.7103 10.1399 83.5932 11.2962 83.5932 13.6113V24.1954H87.6985V14.9374C87.6985 13.2816 88.0442 12.0687 88.7334 11.2962C89.4225 10.5261 90.2097 10.1399 91.0901 10.1399C92.8533 10.1399 93.7362 11.2962 93.7362 13.6113V24.1954H97.8414V12.8289C97.8414 10.878 97.3657 9.37472 96.4166 8.31926C95.4676 7.2638 94.1212 6.7373 92.38 6.7373Z" fill="#0083BB"/>
<path d="M109.815 6.77199C107.576 6.77199 105.71 7.55436 104.219 9.1191C102.725 10.6838 101.979 12.839 101.979 15.5847C101.979 18.1705 102.772 20.2814 104.353 21.915C105.935 23.5486 108.096 24.3654 110.833 24.3654C113.094 24.3654 114.823 23.9915 116.022 23.2435V19.7032C114.778 20.611 113.251 21.0637 111.443 21.0637C110.04 21.0637 108.871 20.7341 107.931 20.0772C106.992 19.4203 106.377 18.4657 106.082 17.2183H116.87C117.027 16.2195 117.108 15.4026 117.108 14.7679C117.108 12.16 116.451 10.1746 115.141 8.81156C113.829 7.45103 112.054 6.76953 109.815 6.76953V6.77199ZM113.241 14.1577H106.016C106.22 12.7972 106.678 11.759 107.389 11.043C108.101 10.3296 108.944 9.97035 109.915 9.97035C110.977 9.97035 111.787 10.3049 112.341 10.9741C112.895 11.6433 113.194 12.534 113.241 13.646V14.1553V14.1577Z" fill="#0083BB"/>
<path d="M133.358 9.59648C132.158 7.66763 130.439 6.7032 128.2 6.7032C125.961 6.7032 124.247 7.50279 122.856 9.10197C121.466 10.7011 120.77 12.8637 120.77 15.5848C120.77 18.0352 121.432 20.1215 122.753 21.8462C124.075 23.5709 125.868 24.432 128.129 24.432C130.39 24.432 132.178 23.4577 133.353 21.5042V24.1933H137.424V0.136719H133.353V9.59648H133.358ZM132.136 19.5188C131.322 20.4611 130.304 20.931 129.083 20.931C127.862 20.931 126.923 20.4438 126.133 19.4671C125.341 18.4928 124.946 17.2209 124.946 15.6561C124.946 13.9315 125.348 12.5882 126.15 11.6238C126.952 10.6593 127.943 10.1771 129.117 10.1771C130.226 10.1771 131.209 10.615 132.068 11.4884C132.926 12.3618 133.358 13.6732 133.358 15.42C133.358 17.1668 132.95 18.579 132.136 19.5212V19.5188Z" fill="#0083BB"/>
<path d="M144.892 0.228516C144.213 0.228516 143.637 0.467162 143.163 0.941996C142.688 1.41929 142.45 1.99745 142.45 2.67649C142.45 3.35553 142.688 3.9706 143.163 4.44543C143.639 4.92272 144.215 5.15891 144.892 5.15891C145.569 5.15891 146.148 4.92026 146.621 4.44543C147.097 3.96814 147.332 3.38013 147.332 2.67649C147.332 1.97285 147.094 1.41683 146.621 0.941996C146.145 0.464702 145.569 0.228516 144.892 0.228516Z" fill="#0083BB"/>
<path d="M146.927 6.94434H142.856V24.1983H146.927V6.94434Z" fill="#0083BB"/>
<path d="M153.899 9.25665C152.283 10.9813 151.461 13.1021 151.439 15.6214C151.439 18.185 152.258 20.3058 153.899 21.9861C155.539 23.6665 157.68 24.5054 160.326 24.5054C162.112 24.5054 163.605 24.1536 164.804 23.45V19.9096C163.605 20.6822 162.305 21.066 160.903 21.066C159.296 21.066 158.024 20.5665 157.087 19.5677C156.148 18.5688 155.657 17.2526 155.61 15.6189C155.633 13.9632 156.13 12.6346 157.104 11.6382C158.075 10.6393 159.353 10.1399 160.937 10.1399C162.384 10.1399 163.674 10.504 164.804 11.2298V7.62303C163.627 6.98827 162.202 6.6709 160.53 6.6709C157.724 6.6709 155.515 7.53446 153.899 9.25665Z" fill="#0083BB"/>
<path d="M175.15 6.63723C172.73 6.63723 170.876 7.03333 169.586 7.828V11.6045C171.123 10.5835 172.808 10.0742 174.64 10.0742C175.839 10.0742 176.688 10.3252 177.183 10.8222C177.681 11.3216 177.929 12.0474 177.929 12.9995V14.055H175.418C173.11 14.055 171.347 14.52 170.125 15.4499C168.904 16.3799 168.293 17.6617 168.293 19.2954C168.293 20.7469 168.774 21.95 169.735 22.9021C170.697 23.8542 171.992 24.3315 173.62 24.3315C175.812 24.3315 177.306 23.5935 178.098 22.1197V24.1962H182.135V13.1693C182.135 8.81211 179.805 6.63477 175.148 6.63477L175.15 6.63723ZM177.931 18.4121C177.931 19.2757 177.676 19.9719 177.169 20.5058C176.658 21.0397 175.952 21.3054 175.047 21.3054C173.372 21.3054 172.536 20.5796 172.536 19.1281C172.536 18.4466 172.818 17.8856 173.385 17.4428C173.949 16.9999 174.763 16.7785 175.827 16.7785H177.931V18.4121Z" fill="#0083BB"/>
<path d="M208.599 7.00821V10.9766H201.857V17.703H197.791V10.9766H191.16V7.00821H197.791V0.208008H201.857V7.00821H208.599Z" fill="#C0D200"/>
</g>
<defs>
<clipPath id="clip0_2757_524">
<rect width="208" height="48" fill="white" transform="translate(0.59668 0.136719)"/>
</clipPath>
</defs>
</svg>
