<svg width="743" height="611" viewBox="0 0 743 611" fill="none" xmlns="http://www.w3.org/2000/svg">
<path d="M112.892 43.1038V47.1969H105.753V54.1347H101.448V47.1969H94.4258V43.1038H101.448V36.0898H105.753V43.1038H112.892Z" fill="#098FC8"/>
<path d="M484.064 43.1038V47.1969H476.925V54.1347H472.619V47.1969H465.598V43.1038H472.619V36.0898H476.925V43.1038H484.064Z" fill="#098FC8"/>
<path d="M112.892 348.44V352.533H105.753V359.471H101.448V352.533H94.4258V348.44H101.448V341.426H105.753V348.44H112.892Z" fill="#098FC8"/>
<path d="M484.064 348.44V352.533H476.925V359.471H472.619V352.533H465.598V348.44H472.619V341.426H476.925V348.44H484.064Z" fill="#098FC8"/>
<path d="M18.4659 43.1038V47.1969H11.3273V54.1347H7.02177V47.1969H0V43.1038H7.02177V36.0898H11.3273V43.1038H18.4659Z" fill="#098FC8"/>
<path d="M389.638 43.1038V47.1969H382.499V54.1347H378.194V47.1969H371.172V43.1038H378.194V36.0898H382.499V43.1038H389.638Z" fill="#098FC8"/>
<path d="M18.4659 348.444V352.537H11.3273V359.475H7.02177V352.537H0V348.444H7.02177V341.43H11.3273V348.444H18.4659Z" fill="#098FC8"/>
<path d="M389.638 348.444V352.537H382.499V359.475H378.194V352.537H371.172V348.444H378.194V341.43H382.499V348.444H389.638Z" fill="#098FC8"/>
<path d="M159.177 43.1038V47.1969H152.038V54.1347H147.733V47.1969H140.711V43.1038H147.733V36.0898H152.038V43.1038H159.177Z" fill="#098FC8"/>
<path d="M530.349 43.1038V47.1969H523.21V54.1347H518.905V47.1969H511.883V43.1038H518.905V36.0898H523.21V43.1038H530.349Z" fill="#098FC8"/>
<path d="M159.177 348.44V352.533H152.038V359.471H147.733V352.533H140.711V348.44H147.733V341.426H152.038V348.44H159.177Z" fill="#098FC8"/>
<path d="M530.349 348.44V352.533H523.21V359.471H518.905V352.533H511.883V348.44H518.905V341.426H523.21V348.44H530.349Z" fill="#098FC8"/>
<path d="M64.7491 43.1038V47.1969H57.6105V54.1347H53.305V47.1969H46.2832V43.1038H53.305V36.0898H57.6105V43.1038H64.7491Z" fill="#098FC8"/>
<path d="M435.921 43.1038V47.1969H428.782V54.1347H424.477V47.1969H417.455V43.1038H424.477V36.0898H428.782V43.1038H435.921Z" fill="#098FC8"/>
<path d="M64.7491 348.44V352.533H57.6105V359.471H53.305V352.533H46.2832V348.44H53.305V341.426H57.6105V348.44H64.7491Z" fill="#098FC8"/>
<path d="M435.921 348.44V352.533H428.782V359.471H424.477V352.533H417.455V348.44H424.477V341.426H428.782V348.44H435.921Z" fill="#098FC8"/>
<path d="M112.892 7.01392V11.1071H105.753V18.0449H101.448V11.1071H94.4258V7.01392H101.448V0H105.753V7.01392H112.892Z" fill="#098FC8"/>
<path d="M484.064 7.01392V11.1071H476.925V18.0449H472.619V11.1071H465.598V7.01392H472.619V0H476.925V7.01392H484.064Z" fill="#098FC8"/>
<path d="M112.892 312.35V316.443H105.753V323.381H101.448V316.443H94.4258V312.35H101.448V305.336H105.753V312.35H112.892Z" fill="#098FC8"/>
<path d="M484.064 312.35V316.443H476.925V323.381H472.619V316.443H465.598V312.35H472.619V305.336H476.925V312.35H484.064Z" fill="#098FC8"/>
<path d="M18.4659 7.01392V11.1071H11.3273V18.0449H7.02177V11.1071H0V7.01392H7.02177V0H11.3273V7.01392H18.4659Z" fill="#098FC8"/>
<path d="M389.638 7.01392V11.1071H382.499V18.0449H378.194V11.1071H371.172V7.01392H378.194V0H382.499V7.01392H389.638Z" fill="#098FC8"/>
<path d="M18.4659 312.35V316.443H11.3273V323.381H7.02177V316.443H0V312.35H7.02177V305.336H11.3273V312.35H18.4659Z" fill="#098FC8"/>
<path d="M389.638 312.35V316.443H382.499V323.381H378.194V316.443H371.172V312.35H378.194V305.336H382.499V312.35H389.638Z" fill="#098FC8"/>
<path d="M159.177 7.01392V11.1071H152.038V18.0449H147.733V11.1071H140.711V7.01392H147.733V0H152.038V7.01392H159.177Z" fill="#098FC8"/>
<path d="M530.349 7.01392V11.1071H523.21V18.0449H518.905V11.1071H511.883V7.01392H518.905V0H523.21V7.01392H530.349Z" fill="#098FC8"/>
<path d="M159.177 312.35V316.443H152.038V323.381H147.733V316.443H140.711V312.35H147.733V305.336H152.038V312.35H159.177Z" fill="#098FC8"/>
<path d="M530.349 312.35V316.443H523.21V323.381H518.905V316.443H511.883V312.35H518.905V305.336H523.21V312.35H530.349Z" fill="#098FC8"/>
<path d="M64.7491 7.01392V11.1071H57.6105V18.0449H53.305V11.1071H46.2832V7.01392H53.305V0H57.6105V7.01392H64.7491Z" fill="#098FC8"/>
<path d="M435.921 7.01392V11.1071H428.782V18.0449H424.477V11.1071H417.455V7.01392H424.477V0H428.782V7.01392H435.921Z" fill="#098FC8"/>
<path d="M64.7491 312.35V316.443H57.6105V323.381H53.305V316.443H46.2832V312.35H53.305V305.336H57.6105V312.35H64.7491Z" fill="#098FC8"/>
<path d="M435.921 312.35V316.443H428.782V323.381H424.477V316.443H417.455V312.35H424.477V305.336H428.782V312.35H435.921Z" fill="#098FC8"/>
<path d="M136.034 61.1467V65.2399H128.896V72.1777H124.59V65.2399H117.568V61.1467H124.59V54.1328H128.896V61.1467H136.034Z" fill="#098FC8"/>
<path d="M507.206 61.1467V65.2399H500.067V72.1777H495.762V65.2399H488.74V61.1467H495.762V54.1328H500.067V61.1467H507.206Z" fill="#098FC8"/>
<path d="M136.034 366.487V370.58H128.896V377.518H124.59V370.58H117.568V366.487H124.59V359.473H128.896V366.487H136.034Z" fill="#098FC8"/>
<path d="M507.206 366.487V370.58H500.067V377.518H495.762V370.58H488.74V366.487H495.762V359.473H500.067V366.487H507.206Z" fill="#098FC8"/>
<path d="M41.6065 61.1467V65.2399H34.4679V72.1777H30.1624V65.2399H23.1406V61.1467H30.1624V54.1328H34.4679V61.1467H41.6065Z" fill="#098FC8"/>
<path d="M412.778 61.1467V65.2399H405.64V72.1777H401.334V65.2399H394.312V61.1467H401.334V54.1328H405.64V61.1467H412.778Z" fill="#098FC8"/>
<path d="M41.6065 366.487V370.58H34.4679V377.518H30.1624V370.58H23.1406V366.487H30.1624V359.473H34.4679V366.487H41.6065Z" fill="#098FC8"/>
<path d="M412.778 366.487V370.58H405.64V377.518H401.334V370.58H394.312V366.487H401.334V359.473H405.64V366.487H412.778Z" fill="#098FC8"/>
<path d="M182.319 61.1467V65.2399H175.181V72.1777H170.875V65.2399H163.854V61.1467H170.875V54.1328H175.181V61.1467H182.319Z" fill="#098FC8"/>
<path d="M553.491 61.1467V65.2399H546.353V72.1777H542.047V65.2399H535.025V61.1467H542.047V54.1328H546.353V61.1467H553.491Z" fill="#098FC8"/>
<path d="M182.319 366.487V370.58H175.181V377.518H170.875V370.58H163.854V366.487H170.875V359.473H175.181V366.487H182.319Z" fill="#098FC8"/>
<path d="M553.491 366.487V370.58H546.353V377.518H542.047V370.58H535.025V366.487H542.047V359.473H546.353V366.487H553.491Z" fill="#098FC8"/>
<path d="M87.8916 61.1467V65.2399H80.753V72.1777H76.4475V65.2399H69.4258V61.1467H76.4475V54.1328H80.753V61.1467H87.8916Z" fill="#098FC8"/>
<path d="M459.064 61.1467V65.2399H451.925V72.1777H447.619V65.2399H440.598V61.1467H447.619V54.1328H451.925V61.1467H459.064Z" fill="#098FC8"/>
<path d="M87.8916 366.487V370.58H80.753V377.518H76.4475V370.58H69.4258V366.487H76.4475V359.473H80.753V366.487H87.8916Z" fill="#098FC8"/>
<path d="M459.064 366.487V370.58H451.925V377.518H447.619V370.58H440.598V366.487H447.619V359.473H451.925V366.487H459.064Z" fill="#098FC8"/>
<path d="M136.034 25.0569V29.15H128.896V36.0878H124.59V29.15H117.568V25.0569H124.59V18.043H128.896V25.0569H136.034Z" fill="#098FC8"/>
<path d="M507.206 25.0569V29.15H500.067V36.0878H495.762V29.15H488.74V25.0569H495.762V18.043H500.067V25.0569H507.206Z" fill="#098FC8"/>
<path d="M136.034 330.397V334.49H128.896V341.428H124.59V334.49H117.568V330.397H124.59V323.383H128.896V330.397H136.034Z" fill="#098FC8"/>
<path d="M507.206 330.397V334.49H500.067V341.428H495.762V334.49H488.74V330.397H495.762V323.383H500.067V330.397H507.206Z" fill="#098FC8"/>
<path d="M41.6065 25.0569V29.15H34.4679V36.0878H30.1624V29.15H23.1406V25.0569H30.1624V18.043H34.4679V25.0569H41.6065Z" fill="#098FC8"/>
<path d="M412.778 25.0569V29.15H405.64V36.0878H401.334V29.15H394.312V25.0569H401.334V18.043H405.64V25.0569H412.778Z" fill="#098FC8"/>
<path d="M41.6065 330.397V334.49H34.4679V341.428H30.1624V334.49H23.1406V330.397H30.1624V323.383H34.4679V330.397H41.6065Z" fill="#098FC8"/>
<path d="M412.778 330.397V334.49H405.64V341.428H401.334V334.49H394.312V330.397H401.334V323.383H405.64V330.397H412.778Z" fill="#098FC8"/>
<path d="M182.319 25.0569V29.15H175.181V36.0878H170.875V29.15H163.854V25.0569H170.875V18.043H175.181V25.0569H182.319Z" fill="#098FC8"/>
<path d="M553.491 25.0569V29.15H546.353V36.0878H542.047V29.15H535.025V25.0569H542.047V18.043H546.353V25.0569H553.491Z" fill="#098FC8"/>
<path d="M182.319 330.397V334.49H175.181V341.428H170.875V334.49H163.854V330.397H170.875V323.383H175.181V330.397H182.319Z" fill="#098FC8"/>
<path d="M553.491 330.397V334.49H546.353V341.428H542.047V334.49H535.025V330.397H542.047V323.383H546.353V330.397H553.491Z" fill="#098FC8"/>
<path d="M87.8916 25.0569V29.15H80.753V36.0878H76.4475V29.15H69.4258V25.0569H76.4475V18.043H80.753V25.0569H87.8916Z" fill="#098FC8"/>
<path d="M459.064 25.0569V29.15H451.925V36.0878H447.619V29.15H440.598V25.0569H447.619V18.043H451.925V25.0569H459.064Z" fill="#098FC8"/>
<path d="M87.8916 330.397V334.49H80.753V341.428H76.4475V334.49H69.4258V330.397H76.4475V323.383H80.753V330.397H87.8916Z" fill="#098FC8"/>
<path d="M459.064 330.397V334.49H451.925V341.428H447.619V334.49H440.598V330.397H447.619V323.383H451.925V330.397H459.064Z" fill="#098FC8"/>
<path d="M112.892 123.592V127.685H105.753V134.623H101.448V127.685H94.4258V123.592H101.448V116.578H105.753V123.592H112.892Z" fill="#098FC8"/>
<path d="M484.064 123.592V127.685H476.925V134.623H472.619V127.685H465.598V123.592H472.619V116.578H476.925V123.592H484.064Z" fill="#098FC8"/>
<path d="M112.892 428.932V433.025H105.753V439.963H101.448V433.025H94.4258V428.932H101.448V421.918H105.753V428.932H112.892Z" fill="#098FC8"/>
<path d="M484.064 428.932V433.025H476.925V439.963H472.619V433.025H465.598V428.932H472.619V421.918H476.925V428.932H484.064Z" fill="#098FC8"/>
<path d="M18.4659 123.592V127.685H11.3273V134.623H7.02177V127.685H0V123.592H7.02177V116.578H11.3273V123.592H18.4659Z" fill="#098FC8"/>
<path d="M389.638 123.592V127.685H382.499V134.623H378.194V127.685H371.172V123.592H378.194V116.578H382.499V123.592H389.638Z" fill="#098FC8"/>
<path d="M18.4659 428.932V433.025H11.3273V439.963H7.02177V433.025H0V428.932H7.02177V421.918H11.3273V428.932H18.4659Z" fill="#098FC8"/>
<path d="M389.638 428.932V433.025H382.499V439.963H378.194V433.025H371.172V428.932H378.194V421.918H382.499V428.932H389.638Z" fill="#098FC8"/>
<path d="M159.177 123.592V127.685H152.038V134.623H147.733V127.685H140.711V123.592H147.733V116.578H152.038V123.592H159.177Z" fill="#098FC8"/>
<path d="M530.349 123.592V127.685H523.21V134.623H518.905V127.685H511.883V123.592H518.905V116.578H523.21V123.592H530.349Z" fill="#098FC8"/>
<path d="M159.177 428.932V433.025H152.038V439.963H147.733V433.025H140.711V428.932H147.733V421.918H152.038V428.932H159.177Z" fill="#098FC8"/>
<path d="M530.349 428.932V433.025H523.21V439.963H518.905V433.025H511.883V428.932H518.905V421.918H523.21V428.932H530.349Z" fill="#098FC8"/>
<path d="M64.7491 123.592V127.685H57.6105V134.623H53.305V127.685H46.2832V123.592H53.305V116.578H57.6105V123.592H64.7491Z" fill="#098FC8"/>
<path d="M435.921 123.592V127.685H428.782V134.623H424.477V127.685H417.455V123.592H424.477V116.578H428.782V123.592H435.921Z" fill="#098FC8"/>
<path d="M64.7491 428.932V433.025H57.6105V439.963H53.305V433.025H46.2832V428.932H53.305V421.918H57.6105V428.932H64.7491Z" fill="#098FC8"/>
<path d="M435.921 428.932V433.025H428.782V439.963H424.477V433.025H417.455V428.932H424.477V421.918H428.782V428.932H435.921Z" fill="#098FC8"/>
<path d="M112.892 87.5022V91.5953H105.753V98.5331H101.448V91.5953H94.4258V87.5022H101.448V80.4883H105.753V87.5022H112.892Z" fill="#098FC8"/>
<path d="M484.064 87.5022V91.5953H476.925V98.5331H472.619V91.5953H465.598V87.5022H472.619V80.4883H476.925V87.5022H484.064Z" fill="#098FC8"/>
<path d="M112.892 392.842V396.935H105.753V403.873H101.448V396.935H94.4258V392.842H101.448V385.828H105.753V392.842H112.892Z" fill="#098FC8"/>
<path d="M484.064 392.842V396.935H476.925V403.873H472.619V396.935H465.598V392.842H472.619V385.828H476.925V392.842H484.064Z" fill="#098FC8"/>
<path d="M18.4659 87.5022V91.5953H11.3273V98.5331H7.02177V91.5953H0V87.5022H7.02177V80.4883H11.3273V87.5022H18.4659Z" fill="#098FC8"/>
<path d="M389.638 87.5022V91.5953H382.499V98.5331H378.194V91.5953H371.172V87.5022H378.194V80.4883H382.499V87.5022H389.638Z" fill="#098FC8"/>
<path d="M18.4659 392.842V396.935H11.3273V403.873H7.02177V396.935H0V392.842H7.02177V385.828H11.3273V392.842H18.4659Z" fill="#098FC8"/>
<path d="M389.638 392.842V396.935H382.499V403.873H378.194V396.935H371.172V392.842H378.194V385.828H382.499V392.842H389.638Z" fill="#098FC8"/>
<path d="M159.177 87.5022V91.5953H152.038V98.5331H147.733V91.5953H140.711V87.5022H147.733V80.4883H152.038V87.5022H159.177Z" fill="#098FC8"/>
<path d="M530.349 87.5022V91.5953H523.21V98.5331H518.905V91.5953H511.883V87.5022H518.905V80.4883H523.21V87.5022H530.349Z" fill="#098FC8"/>
<path d="M159.177 392.842V396.935H152.038V403.873H147.733V396.935H140.711V392.842H147.733V385.828H152.038V392.842H159.177Z" fill="#098FC8"/>
<path d="M530.349 392.842V396.935H523.21V403.873H518.905V396.935H511.883V392.842H518.905V385.828H523.21V392.842H530.349Z" fill="#098FC8"/>
<path d="M64.7491 87.5022V91.5953H57.6105V98.5331H53.305V91.5953H46.2832V87.5022H53.305V80.4883H57.6105V87.5022H64.7491Z" fill="#098FC8"/>
<path d="M435.921 87.5022V91.5953H428.782V98.5331H424.477V91.5953H417.455V87.5022H424.477V80.4883H428.782V87.5022H435.921Z" fill="#098FC8"/>
<path d="M64.7491 392.842V396.935H57.6105V403.873H53.305V396.935H46.2832V392.842H53.305V385.828H57.6105V392.842H64.7491Z" fill="#098FC8"/>
<path d="M435.921 392.842V396.935H428.782V403.873H424.477V396.935H417.455V392.842H424.477V385.828H428.782V392.842H435.921Z" fill="#098FC8"/>
<path d="M136.034 141.639V145.732H128.896V152.67H124.59V145.732H117.568V141.639H124.59V134.625H128.896V141.639H136.034Z" fill="#098FC8"/>
<path d="M507.206 141.639V145.732H500.067V152.67H495.762V145.732H488.74V141.639H495.762V134.625H500.067V141.639H507.206Z" fill="#098FC8"/>
<path d="M136.034 446.975V451.068H128.896V458.006H124.59V451.068H117.568V446.975H124.59V439.961H128.896V446.975H136.034Z" fill="#098FC8"/>
<path d="M507.206 446.975V451.068H500.067V458.006H495.762V451.068H488.74V446.975H495.762V439.961H500.067V446.975H507.206Z" fill="#098FC8"/>
<path d="M41.6065 141.639V145.732H34.4679V152.67H30.1624V145.732H23.1406V141.639H30.1624V134.625H34.4679V141.639H41.6065Z" fill="#098FC8"/>
<path d="M412.778 141.639V145.732H405.64V152.67H401.334V145.732H394.312V141.639H401.334V134.625H405.64V141.639H412.778Z" fill="#098FC8"/>
<path d="M41.6065 446.975V451.068H34.4679V458.006H30.1624V451.068H23.1406V446.975H30.1624V439.961H34.4679V446.975H41.6065Z" fill="#098FC8"/>
<path d="M412.778 446.975V451.068H405.64V458.006H401.334V451.068H394.312V446.975H401.334V439.961H405.64V446.975H412.778Z" fill="#098FC8"/>
<path d="M182.319 141.639V145.732H175.181V152.67H170.875V145.732H163.854V141.639H170.875V134.625H175.181V141.639H182.319Z" fill="#098FC8"/>
<path d="M553.491 141.639V145.732H546.353V152.67H542.047V145.732H535.025V141.639H542.047V134.625H546.353V141.639H553.491Z" fill="#098FC8"/>
<path d="M182.319 446.975V451.068H175.181V458.006H170.875V451.068H163.854V446.975H170.875V439.961H175.181V446.975H182.319Z" fill="#098FC8"/>
<path d="M553.491 446.975V451.068H546.353V458.006H542.047V451.068H535.025V446.975H542.047V439.961H546.353V446.975H553.491Z" fill="#098FC8"/>
<path d="M87.8916 141.639V145.732H80.753V152.67H76.4475V145.732H69.4258V141.639H76.4475V134.625H80.753V141.639H87.8916Z" fill="#098FC8"/>
<path d="M459.064 141.639V145.732H451.925V152.67H447.619V145.732H440.598V141.639H447.619V134.625H451.925V141.639H459.064Z" fill="#098FC8"/>
<path d="M87.8916 446.975V451.068H80.753V458.006H76.4475V451.068H69.4258V446.975H76.4475V439.961H80.753V446.975H87.8916Z" fill="#098FC8"/>
<path d="M459.064 446.975V451.068H451.925V458.006H447.619V451.068H440.598V446.975H447.619V439.961H451.925V446.975H459.064Z" fill="#098FC8"/>
<path d="M136.034 105.549V109.642H128.896V116.58H124.59V109.642H117.568V105.549H124.59V98.5352H128.896V105.549H136.034Z" fill="#098FC8"/>
<path d="M507.206 105.549V109.642H500.067V116.58H495.762V109.642H488.74V105.549H495.762V98.5352H500.067V105.549H507.206Z" fill="#098FC8"/>
<path d="M136.034 410.885V414.978H128.896V421.916H124.59V414.978H117.568V410.885H124.59V403.871H128.896V410.885H136.034Z" fill="#098FC8"/>
<path d="M507.206 410.885V414.978H500.067V421.916H495.762V414.978H488.74V410.885H495.762V403.871H500.067V410.885H507.206Z" fill="#098FC8"/>
<path d="M41.6065 105.549V109.642H34.4679V116.58H30.1624V109.642H23.1406V105.549H30.1624V98.5352H34.4679V105.549H41.6065Z" fill="#098FC8"/>
<path d="M412.778 105.549V109.642H405.64V116.58H401.334V109.642H394.312V105.549H401.334V98.5352H405.64V105.549H412.778Z" fill="#098FC8"/>
<path d="M41.6065 410.885V414.978H34.4679V421.916H30.1624V414.978H23.1406V410.885H30.1624V403.871H34.4679V410.885H41.6065Z" fill="#098FC8"/>
<path d="M412.778 410.885V414.978H405.64V421.916H401.334V414.978H394.312V410.885H401.334V403.871H405.64V410.885H412.778Z" fill="#098FC8"/>
<path d="M182.319 105.549V109.642H175.181V116.58H170.875V109.642H163.854V105.549H170.875V98.5352H175.181V105.549H182.319Z" fill="#098FC8"/>
<path d="M553.491 105.549V109.642H546.353V116.58H542.047V109.642H535.025V105.549H542.047V98.5352H546.353V105.549H553.491Z" fill="#098FC8"/>
<path d="M182.319 410.885V414.978H175.181V421.916H170.875V414.978H163.854V410.885H170.875V403.871H175.181V410.885H182.319Z" fill="#098FC8"/>
<path d="M553.491 410.885V414.978H546.353V421.916H542.047V414.978H535.025V410.885H542.047V403.871H546.353V410.885H553.491Z" fill="#098FC8"/>
<path d="M87.8916 105.549V109.642H80.753V116.58H76.4475V109.642H69.4258V105.549H76.4475V98.5352H80.753V105.549H87.8916Z" fill="#098FC8"/>
<path d="M459.064 105.549V109.642H451.925V116.58H447.619V109.642H440.598V105.549H447.619V98.5352H451.925V105.549H459.064Z" fill="#098FC8"/>
<path d="M87.8916 410.885V414.978H80.753V421.916H76.4475V414.978H69.4258V410.885H76.4475V403.871H80.753V410.885H87.8916Z" fill="#098FC8"/>
<path d="M459.064 410.885V414.978H451.925V421.916H447.619V414.978H440.598V410.885H447.619V403.871H451.925V410.885H459.064Z" fill="#098FC8"/>
<path d="M301.747 43.1038V47.1969H294.609V54.1347H290.303V47.1969H283.281V43.1038H290.303V36.0898H294.609V43.1038H301.747Z" fill="#098FC8"/>
<path d="M672.919 43.1038V47.1969H665.78V54.1347H661.475V47.1969H654.453V43.1038H661.475V36.0898H665.78V43.1038H672.919Z" fill="#098FC8"/>
<path d="M301.747 348.44V352.533H294.609V359.471H290.303V352.533H283.281V348.44H290.303V341.426H294.609V348.44H301.747Z" fill="#098FC8"/>
<path d="M672.919 348.44V352.533H665.78V359.471H661.475V352.533H654.453V348.44H661.475V341.426H665.78V348.44H672.919Z" fill="#098FC8"/>
<path d="M207.319 43.1038V47.1969H200.181V54.1347H195.875V47.1969H188.854V43.1038H195.875V36.0898H200.181V43.1038H207.319Z" fill="#098FC8"/>
<path d="M578.491 43.1038V47.1969H571.353V54.1347H567.047V47.1969H560.025V43.1038H567.047V36.0898H571.353V43.1038H578.491Z" fill="#098FC8"/>
<path d="M207.319 348.44V352.533H200.181V359.471H195.875V352.533H188.854V348.44H195.875V341.426H200.181V348.44H207.319Z" fill="#098FC8"/>
<path d="M578.491 348.44V352.533H571.353V359.471H567.047V352.533H560.025V348.44H567.047V341.426H571.353V348.44H578.491Z" fill="#098FC8"/>
<path d="M348.03 43.1038V47.1969H340.892V54.1347H336.586V47.1969H329.564V43.1038H336.586V36.0898H340.892V43.1038H348.03Z" fill="#098FC8"/>
<path d="M719.202 43.1038V47.1969H712.064V54.1347H707.758V47.1969H700.736V43.1038H707.758V36.0898H712.064V43.1038H719.202Z" fill="#098FC8"/>
<path d="M348.03 348.444V352.537H340.892V359.475H336.586V352.537H329.564V348.444H336.586V341.43H340.892V348.444H348.03Z" fill="#098FC8"/>
<path d="M719.202 348.444V352.537H712.064V359.475H707.758V352.537H700.736V348.444H707.758V341.43H712.064V348.444H719.202Z" fill="#098FC8"/>
<path d="M253.605 43.1038V47.1969H246.466V54.1347H242.16V47.1969H235.139V43.1038H242.16V36.0898H246.466V43.1038H253.605Z" fill="#098FC8"/>
<path d="M624.776 43.1038V47.1969H617.638V54.1347H613.332V47.1969H606.311V43.1038H613.332V36.0898H617.638V43.1038H624.776Z" fill="#098FC8"/>
<path d="M253.605 348.44V352.533H246.466V359.471H242.16V352.533H235.139V348.44H242.16V341.426H246.466V348.44H253.605Z" fill="#098FC8"/>
<path d="M624.776 348.44V352.533H617.638V359.471H613.332V352.533H606.311V348.44H613.332V341.426H617.638V348.44H624.776Z" fill="#098FC8"/>
<path d="M301.747 7.01392V11.1071H294.609V18.0449H290.303V11.1071H283.281V7.01392H290.303V0H294.609V7.01392H301.747Z" fill="#098FC8"/>
<path d="M672.919 7.01392V11.1071H665.78V18.0449H661.475V11.1071H654.453V7.01392H661.475V0H665.78V7.01392H672.919Z" fill="#098FC8"/>
<path d="M301.747 312.35V316.443H294.609V323.381H290.303V316.443H283.281V312.35H290.303V305.336H294.609V312.35H301.747Z" fill="#098FC8"/>
<path d="M672.919 312.35V316.443H665.78V323.381H661.475V316.443H654.453V312.35H661.475V305.336H665.78V312.35H672.919Z" fill="#098FC8"/>
<path d="M207.319 7.01392V11.1071H200.181V18.0449H195.875V11.1071H188.854V7.01392H195.875V0H200.181V7.01392H207.319Z" fill="#098FC8"/>
<path d="M578.491 7.01392V11.1071H571.353V18.0449H567.047V11.1071H560.025V7.01392H567.047V0H571.353V7.01392H578.491Z" fill="#098FC8"/>
<path d="M207.319 312.35V316.443H200.181V323.381H195.875V316.443H188.854V312.35H195.875V305.336H200.181V312.35H207.319Z" fill="#098FC8"/>
<path d="M578.491 312.35V316.443H571.353V323.381H567.047V316.443H560.025V312.35H567.047V305.336H571.353V312.35H578.491Z" fill="#098FC8"/>
<path d="M348.03 7.01392V11.1071H340.892V18.0449H336.586V11.1071H329.564V7.01392H336.586V0H340.892V7.01392H348.03Z" fill="#098FC8"/>
<path d="M719.202 7.01392V11.1071H712.064V18.0449H707.758V11.1071H700.736V7.01392H707.758V0H712.064V7.01392H719.202Z" fill="#098FC8"/>
<path d="M348.03 312.35V316.443H340.892V323.381H336.586V316.443H329.564V312.35H336.586V305.336H340.892V312.35H348.03Z" fill="#098FC8"/>
<path d="M719.202 312.35V316.443H712.064V323.381H707.758V316.443H700.736V312.35H707.758V305.336H712.064V312.35H719.202Z" fill="#098FC8"/>
<path d="M253.605 7.01392V11.1071H246.466V18.0449H242.16V11.1071H235.139V7.01392H242.16V0H246.466V7.01392H253.605Z" fill="#098FC8"/>
<path d="M624.776 7.01392V11.1071H617.638V18.0449H613.332V11.1071H606.311V7.01392H613.332V0H617.638V7.01392H624.776Z" fill="#098FC8"/>
<path d="M253.605 312.35V316.443H246.466V323.381H242.16V316.443H235.139V312.35H242.16V305.336H246.466V312.35H253.605Z" fill="#098FC8"/>
<path d="M624.776 312.35V316.443H617.638V323.381H613.332V316.443H606.311V312.35H613.332V305.336H617.638V312.35H624.776Z" fill="#098FC8"/>
<path d="M324.89 61.1467V65.2399H317.751V72.1777H313.446V65.2399H306.424V61.1467H313.446V54.1328H317.751V61.1467H324.89Z" fill="#098FC8"/>
<path d="M696.062 61.1467V65.2399H688.923V72.1777H684.617V65.2399H677.596V61.1467H684.617V54.1328H688.923V61.1467H696.062Z" fill="#098FC8"/>
<path d="M324.89 366.487V370.58H317.751V377.518H313.446V370.58H306.424V366.487H313.446V359.473H317.751V366.487H324.89Z" fill="#098FC8"/>
<path d="M696.062 366.487V370.58H688.923V377.518H684.617V370.58H677.596V366.487H684.617V359.473H688.923V366.487H696.062Z" fill="#098FC8"/>
<path d="M230.462 61.1467V65.2399H223.323V72.1777H219.018V65.2399H211.996V61.1467H219.018V54.1328H223.323V61.1467H230.462Z" fill="#098FC8"/>
<path d="M601.634 61.1467V65.2399H594.495V72.1777H590.19V65.2399H583.168V61.1467H590.19V54.1328H594.495V61.1467H601.634Z" fill="#098FC8"/>
<path d="M230.462 366.487V370.58H223.323V377.518H219.018V370.58H211.996V366.487H219.018V359.473H223.323V366.487H230.462Z" fill="#098FC8"/>
<path d="M601.634 366.487V370.58H594.495V377.518H590.19V370.58H583.168V366.487H590.19V359.473H594.495V366.487H601.634Z" fill="#098FC8"/>
<path d="M371.171 61.1467V65.2399H364.032V72.1777H359.727V65.2399H352.705V61.1467H359.727V54.1328H364.032V61.1467H371.171Z" fill="#098FC8"/>
<path d="M742.343 61.1467V65.2399H735.204V72.1777H730.899V65.2399H723.877V61.1467H730.899V54.1328H735.204V61.1467H742.343Z" fill="#098FC8"/>
<path d="M371.171 366.487V370.58H364.032V377.518H359.727V370.58H352.705V366.487H359.727V359.473H364.032V366.487H371.171Z" fill="#098FC8"/>
<path d="M742.343 366.487V370.58H735.204V377.518H730.899V370.58H723.877V366.487H730.899V359.473H735.204V366.487H742.343Z" fill="#098FC8"/>
<path d="M276.745 61.1467V65.2399H269.607V72.1777H265.301V65.2399H258.279V61.1467H265.301V54.1328H269.607V61.1467H276.745Z" fill="#098FC8"/>
<path d="M647.917 61.1467V65.2399H640.778V72.1777H636.473V65.2399H629.451V61.1467H636.473V54.1328H640.778V61.1467H647.917Z" fill="#098FC8"/>
<path d="M276.745 366.487V370.58H269.607V377.518H265.301V370.58H258.279V366.487H265.301V359.473H269.607V366.487H276.745Z" fill="#098FC8"/>
<path d="M647.917 366.487V370.58H640.778V377.518H636.473V370.58H629.451V366.487H636.473V359.473H640.778V366.487H647.917Z" fill="#098FC8"/>
<path d="M324.89 25.0569V29.15H317.751V36.0878H313.446V29.15H306.424V25.0569H313.446V18.043H317.751V25.0569H324.89Z" fill="#098FC8"/>
<path d="M696.062 25.0569V29.15H688.923V36.0878H684.617V29.15H677.596V25.0569H684.617V18.043H688.923V25.0569H696.062Z" fill="#098FC8"/>
<path d="M324.89 330.397V334.49H317.751V341.428H313.446V334.49H306.424V330.397H313.446V323.383H317.751V330.397H324.89Z" fill="#098FC8"/>
<path d="M696.062 330.397V334.49H688.923V341.428H684.617V334.49H677.596V330.397H684.617V323.383H688.923V330.397H696.062Z" fill="#098FC8"/>
<path d="M230.462 25.0569V29.15H223.323V36.0878H219.018V29.15H211.996V25.0569H219.018V18.043H223.323V25.0569H230.462Z" fill="#098FC8"/>
<path d="M601.634 25.0569V29.15H594.495V36.0878H590.19V29.15H583.168V25.0569H590.19V18.043H594.495V25.0569H601.634Z" fill="#098FC8"/>
<path d="M230.462 330.397V334.49H223.323V341.428H219.018V334.49H211.996V330.397H219.018V323.383H223.323V330.397H230.462Z" fill="#098FC8"/>
<path d="M601.634 330.397V334.49H594.495V341.428H590.19V334.49H583.168V330.397H590.19V323.383H594.495V330.397H601.634Z" fill="#098FC8"/>
<path d="M371.171 25.0569V29.15H364.032V36.0878H359.727V29.15H352.705V25.0569H359.727V18.043H364.032V25.0569H371.171Z" fill="#098FC8"/>
<path d="M742.343 25.0569V29.15H735.204V36.0878H730.899V29.15H723.877V25.0569H730.899V18.043H735.204V25.0569H742.343Z" fill="#098FC8"/>
<path d="M371.171 330.397V334.49H364.032V341.428H359.727V334.49H352.705V330.397H359.727V323.383H364.032V330.397H371.171Z" fill="#098FC8"/>
<path d="M742.343 330.397V334.49H735.204V341.428H730.899V334.49H723.877V330.397H730.899V323.383H735.204V330.397H742.343Z" fill="#098FC8"/>
<path d="M276.745 25.0569V29.15H269.607V36.0878H265.301V29.15H258.279V25.0569H265.301V18.043H269.607V25.0569H276.745Z" fill="#098FC8"/>
<path d="M647.917 25.0569V29.15H640.778V36.0878H636.473V29.15H629.451V25.0569H636.473V18.043H640.778V25.0569H647.917Z" fill="#098FC8"/>
<path d="M276.745 330.397V334.49H269.607V341.428H265.301V334.49H258.279V330.397H265.301V323.383H269.607V330.397H276.745Z" fill="#098FC8"/>
<path d="M647.917 330.397V334.49H640.778V341.428H636.473V334.49H629.451V330.397H636.473V323.383H640.778V330.397H647.917Z" fill="#098FC8"/>
<path d="M301.747 123.592V127.685H294.609V134.623H290.303V127.685H283.281V123.592H290.303V116.578H294.609V123.592H301.747Z" fill="#098FC8"/>
<path d="M672.919 123.592V127.685H665.78V134.623H661.475V127.685H654.453V123.592H661.475V116.578H665.78V123.592H672.919Z" fill="#098FC8"/>
<path d="M301.747 428.932V433.025H294.609V439.963H290.303V433.025H283.281V428.932H290.303V421.918H294.609V428.932H301.747Z" fill="#098FC8"/>
<path d="M672.919 428.932V433.025H665.78V439.963H661.475V433.025H654.453V428.932H661.475V421.918H665.78V428.932H672.919Z" fill="#098FC8"/>
<path d="M207.319 123.592V127.685H200.181V134.623H195.875V127.685H188.854V123.592H195.875V116.578H200.181V123.592H207.319Z" fill="#098FC8"/>
<path d="M578.491 123.592V127.685H571.353V134.623H567.047V127.685H560.025V123.592H567.047V116.578H571.353V123.592H578.491Z" fill="#098FC8"/>
<path d="M207.319 428.932V433.025H200.181V439.963H195.875V433.025H188.854V428.932H195.875V421.918H200.181V428.932H207.319Z" fill="#098FC8"/>
<path d="M578.491 428.932V433.025H571.353V439.963H567.047V433.025H560.025V428.932H567.047V421.918H571.353V428.932H578.491Z" fill="#098FC8"/>
<path d="M348.03 123.592V127.685H340.892V134.623H336.586V127.685H329.564V123.592H336.586V116.578H340.892V123.592H348.03Z" fill="#098FC8"/>
<path d="M719.202 123.592V127.685H712.064V134.623H707.758V127.685H700.736V123.592H707.758V116.578H712.064V123.592H719.202Z" fill="#098FC8"/>
<path d="M348.03 428.932V433.025H340.892V439.963H336.586V433.025H329.564V428.932H336.586V421.918H340.892V428.932H348.03Z" fill="#098FC8"/>
<path d="M719.202 428.932V433.025H712.064V439.963H707.758V433.025H700.736V428.932H707.758V421.918H712.064V428.932H719.202Z" fill="#098FC8"/>
<path d="M253.605 123.592V127.685H246.466V134.623H242.16V127.685H235.139V123.592H242.16V116.578H246.466V123.592H253.605Z" fill="#098FC8"/>
<path d="M624.776 123.592V127.685H617.638V134.623H613.332V127.685H606.311V123.592H613.332V116.578H617.638V123.592H624.776Z" fill="#098FC8"/>
<path d="M253.605 428.932V433.025H246.466V439.963H242.16V433.025H235.139V428.932H242.16V421.918H246.466V428.932H253.605Z" fill="#098FC8"/>
<path d="M624.776 428.932V433.025H617.638V439.963H613.332V433.025H606.311V428.932H613.332V421.918H617.638V428.932H624.776Z" fill="#098FC8"/>
<path d="M301.747 87.5022V91.5953H294.609V98.5331H290.303V91.5953H283.281V87.5022H290.303V80.4883H294.609V87.5022H301.747Z" fill="#098FC8"/>
<path d="M672.919 87.5022V91.5953H665.78V98.5331H661.475V91.5953H654.453V87.5022H661.475V80.4883H665.78V87.5022H672.919Z" fill="#098FC8"/>
<path d="M301.747 392.842V396.935H294.609V403.873H290.303V396.935H283.281V392.842H290.303V385.828H294.609V392.842H301.747Z" fill="#098FC8"/>
<path d="M672.919 392.842V396.935H665.78V403.873H661.475V396.935H654.453V392.842H661.475V385.828H665.78V392.842H672.919Z" fill="#098FC8"/>
<path d="M207.319 87.5022V91.5953H200.181V98.5331H195.875V91.5953H188.854V87.5022H195.875V80.4883H200.181V87.5022H207.319Z" fill="#098FC8"/>
<path d="M578.491 87.5022V91.5953H571.353V98.5331H567.047V91.5953H560.025V87.5022H567.047V80.4883H571.353V87.5022H578.491Z" fill="#098FC8"/>
<path d="M207.319 392.842V396.935H200.181V403.873H195.875V396.935H188.854V392.842H195.875V385.828H200.181V392.842H207.319Z" fill="#098FC8"/>
<path d="M578.491 392.842V396.935H571.353V403.873H567.047V396.935H560.025V392.842H567.047V385.828H571.353V392.842H578.491Z" fill="#098FC8"/>
<path d="M348.03 87.5022V91.5953H340.892V98.5331H336.586V91.5953H329.564V87.5022H336.586V80.4883H340.892V87.5022H348.03Z" fill="#098FC8"/>
<path d="M719.202 87.5022V91.5953H712.064V98.5331H707.758V91.5953H700.736V87.5022H707.758V80.4883H712.064V87.5022H719.202Z" fill="#098FC8"/>
<path d="M348.03 392.842V396.935H340.892V403.873H336.586V396.935H329.564V392.842H336.586V385.828H340.892V392.842H348.03Z" fill="#098FC8"/>
<path d="M719.202 392.842V396.935H712.064V403.873H707.758V396.935H700.736V392.842H707.758V385.828H712.064V392.842H719.202Z" fill="#098FC8"/>
<path d="M253.605 87.5022V91.5953H246.466V98.5331H242.16V91.5953H235.139V87.5022H242.16V80.4883H246.466V87.5022H253.605Z" fill="#098FC8"/>
<path d="M624.776 87.5022V91.5953H617.638V98.5331H613.332V91.5953H606.311V87.5022H613.332V80.4883H617.638V87.5022H624.776Z" fill="#098FC8"/>
<path d="M253.605 392.842V396.935H246.466V403.873H242.16V396.935H235.139V392.842H242.16V385.828H246.466V392.842H253.605Z" fill="#098FC8"/>
<path d="M624.776 392.842V396.935H617.638V403.873H613.332V396.935H606.311V392.842H613.332V385.828H617.638V392.842H624.776Z" fill="#098FC8"/>
<path d="M324.89 141.639V145.732H317.751V152.67H313.446V145.732H306.424V141.639H313.446V134.625H317.751V141.639H324.89Z" fill="#098FC8"/>
<path d="M696.062 141.639V145.732H688.923V152.67H684.617V145.732H677.596V141.639H684.617V134.625H688.923V141.639H696.062Z" fill="#098FC8"/>
<path d="M324.89 446.975V451.068H317.751V458.006H313.446V451.068H306.424V446.975H313.446V439.961H317.751V446.975H324.89Z" fill="#098FC8"/>
<path d="M696.062 446.975V451.068H688.923V458.006H684.617V451.068H677.596V446.975H684.617V439.961H688.923V446.975H696.062Z" fill="#098FC8"/>
<path d="M230.462 141.639V145.732H223.323V152.67H219.018V145.732H211.996V141.639H219.018V134.625H223.323V141.639H230.462Z" fill="#098FC8"/>
<path d="M601.634 141.639V145.732H594.495V152.67H590.19V145.732H583.168V141.639H590.19V134.625H594.495V141.639H601.634Z" fill="#098FC8"/>
<path d="M230.462 446.975V451.068H223.323V458.006H219.018V451.068H211.996V446.975H219.018V439.961H223.323V446.975H230.462Z" fill="#098FC8"/>
<path d="M601.634 446.975V451.068H594.495V458.006H590.19V451.068H583.168V446.975H590.19V439.961H594.495V446.975H601.634Z" fill="#098FC8"/>
<path d="M371.171 141.639V145.732H364.032V152.67H359.727V145.732H352.705V141.639H359.727V134.625H364.032V141.639H371.171Z" fill="#098FC8"/>
<path d="M742.343 141.639V145.732H735.204V152.67H730.899V145.732H723.877V141.639H730.899V134.625H735.204V141.639H742.343Z" fill="#098FC8"/>
<path d="M371.171 446.975V451.068H364.032V458.006H359.727V451.068H352.705V446.975H359.727V439.961H364.032V446.975H371.171Z" fill="#098FC8"/>
<path d="M742.343 446.975V451.068H735.204V458.006H730.899V451.068H723.877V446.975H730.899V439.961H735.204V446.975H742.343Z" fill="#098FC8"/>
<path d="M276.745 141.639V145.732H269.607V152.67H265.301V145.732H258.279V141.639H265.301V134.625H269.607V141.639H276.745Z" fill="#098FC8"/>
<path d="M647.917 141.639V145.732H640.778V152.67H636.473V145.732H629.451V141.639H636.473V134.625H640.778V141.639H647.917Z" fill="#098FC8"/>
<path d="M276.745 446.975V451.068H269.607V458.006H265.301V451.068H258.279V446.975H265.301V439.961H269.607V446.975H276.745Z" fill="#098FC8"/>
<path d="M647.917 446.975V451.068H640.778V458.006H636.473V451.068H629.451V446.975H636.473V439.961H640.778V446.975H647.917Z" fill="#098FC8"/>
<path d="M324.89 105.549V109.642H317.751V116.58H313.446V109.642H306.424V105.549H313.446V98.5352H317.751V105.549H324.89Z" fill="#098FC8"/>
<path d="M696.062 105.549V109.642H688.923V116.58H684.617V109.642H677.596V105.549H684.617V98.5352H688.923V105.549H696.062Z" fill="#098FC8"/>
<path d="M324.89 410.885V414.978H317.751V421.916H313.446V414.978H306.424V410.885H313.446V403.871H317.751V410.885H324.89Z" fill="#098FC8"/>
<path d="M696.062 410.885V414.978H688.923V421.916H684.617V414.978H677.596V410.885H684.617V403.871H688.923V410.885H696.062Z" fill="#098FC8"/>
<path d="M230.462 105.549V109.642H223.323V116.58H219.018V109.642H211.996V105.549H219.018V98.5352H223.323V105.549H230.462Z" fill="#098FC8"/>
<path d="M601.634 105.549V109.642H594.495V116.58H590.19V109.642H583.168V105.549H590.19V98.5352H594.495V105.549H601.634Z" fill="#098FC8"/>
<path d="M230.462 410.885V414.978H223.323V421.916H219.018V414.978H211.996V410.885H219.018V403.871H223.323V410.885H230.462Z" fill="#098FC8"/>
<path d="M601.634 410.885V414.978H594.495V421.916H590.19V414.978H583.168V410.885H590.19V403.871H594.495V410.885H601.634Z" fill="#098FC8"/>
<path d="M371.171 105.549V109.642H364.032V116.58H359.727V109.642H352.705V105.549H359.727V98.5352H364.032V105.549H371.171Z" fill="#098FC8"/>
<path d="M742.343 105.549V109.642H735.204V116.58H730.899V109.642H723.877V105.549H730.899V98.5352H735.204V105.549H742.343Z" fill="#098FC8"/>
<path d="M371.171 410.885V414.978H364.032V421.916H359.727V414.978H352.705V410.885H359.727V403.871H364.032V410.885H371.171Z" fill="#098FC8"/>
<path d="M742.343 410.885V414.978H735.204V421.916H730.899V414.978H723.877V410.885H730.899V403.871H735.204V410.885H742.343Z" fill="#098FC8"/>
<path d="M276.745 105.549V109.642H269.607V116.58H265.301V109.642H258.279V105.549H265.301V98.5352H269.607V105.549H276.745Z" fill="#098FC8"/>
<path d="M647.917 105.549V109.642H640.778V116.58H636.473V109.642H629.451V105.549H636.473V98.5352H640.778V105.549H647.917Z" fill="#098FC8"/>
<path d="M276.745 410.885V414.978H269.607V421.916H265.301V414.978H258.279V410.885H265.301V403.871H269.607V410.885H276.745Z" fill="#098FC8"/>
<path d="M647.917 410.885V414.978H640.778V421.916H636.473V414.978H629.451V410.885H636.473V403.871H640.778V410.885H647.917Z" fill="#098FC8"/>
<path d="M112.892 195.772V199.865H105.753V206.803H101.448V199.865H94.4258V195.772H101.448V188.758H105.753V195.772H112.892Z" fill="#098FC8"/>
<path d="M484.064 195.772V199.865H476.925V206.803H472.619V199.865H465.598V195.772H472.619V188.758H476.925V195.772H484.064Z" fill="#098FC8"/>
<path d="M112.892 501.112V505.205H105.753V512.143H101.448V505.205H94.4258V501.112H101.448V494.098H105.753V501.112H112.892Z" fill="#098FC8"/>
<path d="M484.064 501.112V505.205H476.925V512.143H472.619V505.205H465.598V501.112H472.619V494.098H476.925V501.112H484.064Z" fill="#098FC8"/>
<path d="M18.4659 195.772V199.865H11.3273V206.803H7.02177V199.865H0V195.772H7.02177V188.758H11.3273V195.772H18.4659Z" fill="#098FC8"/>
<path d="M389.638 195.772V199.865H382.499V206.803H378.194V199.865H371.172V195.772H378.194V188.758H382.499V195.772H389.638Z" fill="#098FC8"/>
<path d="M18.4659 501.112V505.205H11.3273V512.143H7.02177V505.205H0V501.112H7.02177V494.098H11.3273V501.112H18.4659Z" fill="#098FC8"/>
<path d="M389.638 501.112V505.205H382.499V512.143H378.194V505.205H371.172V501.112H378.194V494.098H382.499V501.112H389.638Z" fill="#098FC8"/>
<path d="M159.177 195.772V199.865H152.038V206.803H147.733V199.865H140.711V195.772H147.733V188.758H152.038V195.772H159.177Z" fill="#098FC8"/>
<path d="M530.349 195.772V199.865H523.21V206.803H518.905V199.865H511.883V195.772H518.905V188.758H523.21V195.772H530.349Z" fill="#098FC8"/>
<path d="M159.177 501.112V505.205H152.038V512.143H147.733V505.205H140.711V501.112H147.733V494.098H152.038V501.112H159.177Z" fill="#098FC8"/>
<path d="M530.349 501.112V505.205H523.21V512.143H518.905V505.205H511.883V501.112H518.905V494.098H523.21V501.112H530.349Z" fill="#098FC8"/>
<path d="M64.7491 195.772V199.865H57.6105V206.803H53.305V199.865H46.2832V195.772H53.305V188.758H57.6105V195.772H64.7491Z" fill="#098FC8"/>
<path d="M435.921 195.772V199.865H428.782V206.803H424.477V199.865H417.455V195.772H424.477V188.758H428.782V195.772H435.921Z" fill="#098FC8"/>
<path d="M64.7491 501.112V505.205H57.6105V512.143H53.305V505.205H46.2832V501.112H53.305V494.098H57.6105V501.112H64.7491Z" fill="#098FC8"/>
<path d="M435.921 501.112V505.205H428.782V512.143H424.477V505.205H417.455V501.112H424.477V494.098H428.782V501.112H435.921Z" fill="#098FC8"/>
<path d="M112.892 159.682V163.775H105.753V170.713H101.448V163.775H94.4258V159.682H101.448V152.668H105.753V159.682H112.892Z" fill="#098FC8"/>
<path d="M484.064 159.682V163.775H476.925V170.713H472.619V163.775H465.598V159.682H472.619V152.668H476.925V159.682H484.064Z" fill="#098FC8"/>
<path d="M112.892 465.022V469.115H105.753V476.053H101.448V469.115H94.4258V465.022H101.448V458.008H105.753V465.022H112.892Z" fill="#098FC8"/>
<path d="M484.064 465.022V469.115H476.925V476.053H472.619V469.115H465.598V465.022H472.619V458.008H476.925V465.022H484.064Z" fill="#098FC8"/>
<path d="M18.4659 159.682V163.775H11.3273V170.713H7.02177V163.775H0V159.682H7.02177V152.668H11.3273V159.682H18.4659Z" fill="#098FC8"/>
<path d="M389.638 159.682V163.775H382.499V170.713H378.194V163.775H371.172V159.682H378.194V152.668H382.499V159.682H389.638Z" fill="#098FC8"/>
<path d="M18.4659 465.022V469.115H11.3273V476.053H7.02177V469.115H0V465.022H7.02177V458.008H11.3273V465.022H18.4659Z" fill="#098FC8"/>
<path d="M389.638 465.022V469.115H382.499V476.053H378.194V469.115H371.172V465.022H378.194V458.008H382.499V465.022H389.638Z" fill="#098FC8"/>
<path d="M159.177 159.682V163.775H152.038V170.713H147.733V163.775H140.711V159.682H147.733V152.668H152.038V159.682H159.177Z" fill="#098FC8"/>
<path d="M530.349 159.682V163.775H523.21V170.713H518.905V163.775H511.883V159.682H518.905V152.668H523.21V159.682H530.349Z" fill="#098FC8"/>
<path d="M159.177 465.022V469.115H152.038V476.053H147.733V469.115H140.711V465.022H147.733V458.008H152.038V465.022H159.177Z" fill="#098FC8"/>
<path d="M530.349 465.022V469.115H523.21V476.053H518.905V469.115H511.883V465.022H518.905V458.008H523.21V465.022H530.349Z" fill="#098FC8"/>
<path d="M64.7491 159.682V163.775H57.6105V170.713H53.305V163.775H46.2832V159.682H53.305V152.668H57.6105V159.682H64.7491Z" fill="#098FC8"/>
<path d="M435.921 159.682V163.775H428.782V170.713H424.477V163.775H417.455V159.682H424.477V152.668H428.782V159.682H435.921Z" fill="#098FC8"/>
<path d="M64.7491 465.022V469.115H57.6105V476.053H53.305V469.115H46.2832V465.022H53.305V458.008H57.6105V465.022H64.7491Z" fill="#098FC8"/>
<path d="M435.921 465.022V469.115H428.782V476.053H424.477V469.115H417.455V465.022H424.477V458.008H428.782V465.022H435.921Z" fill="#098FC8"/>
<path d="M136.034 213.819V217.912H128.896V224.85H124.59V217.912H117.568V213.819H124.59V206.805H128.896V213.819H136.034Z" fill="#098FC8"/>
<path d="M507.206 213.819V217.912H500.067V224.85H495.762V217.912H488.74V213.819H495.762V206.805H500.067V213.819H507.206Z" fill="#098FC8"/>
<path d="M136.034 519.155V523.248H128.896V530.185H124.59V523.248H117.568V519.155H124.59V512.141H128.896V519.155H136.034Z" fill="#098FC8"/>
<path d="M507.206 519.155V523.248H500.067V530.185H495.762V523.248H488.74V519.155H495.762V512.141H500.067V519.155H507.206Z" fill="#098FC8"/>
<path d="M41.6065 213.819V217.912H34.4679V224.85H30.1624V217.912H23.1406V213.819H30.1624V206.805H34.4679V213.819H41.6065Z" fill="#098FC8"/>
<path d="M412.778 213.819V217.912H405.64V224.85H401.334V217.912H394.312V213.819H401.334V206.805H405.64V213.819H412.778Z" fill="#098FC8"/>
<path d="M41.6065 519.155V523.248H34.4679V530.185H30.1624V523.248H23.1406V519.155H30.1624V512.141H34.4679V519.155H41.6065Z" fill="#098FC8"/>
<path d="M412.778 519.155V523.248H405.64V530.185H401.334V523.248H394.312V519.155H401.334V512.141H405.64V519.155H412.778Z" fill="#098FC8"/>
<path d="M182.319 213.819V217.912H175.181V224.85H170.875V217.912H163.854V213.819H170.875V206.805H175.181V213.819H182.319Z" fill="#098FC8"/>
<path d="M553.491 213.819V217.912H546.353V224.85H542.047V217.912H535.025V213.819H542.047V206.805H546.353V213.819H553.491Z" fill="#098FC8"/>
<path d="M182.319 519.155V523.248H175.181V530.185H170.875V523.248H163.854V519.155H170.875V512.141H175.181V519.155H182.319Z" fill="#098FC8"/>
<path d="M553.491 519.155V523.248H546.353V530.185H542.047V523.248H535.025V519.155H542.047V512.141H546.353V519.155H553.491Z" fill="#098FC8"/>
<path d="M87.8916 213.819V217.912H80.753V224.85H76.4475V217.912H69.4258V213.819H76.4475V206.805H80.753V213.819H87.8916Z" fill="#098FC8"/>
<path d="M459.064 213.819V217.912H451.925V224.85H447.619V217.912H440.598V213.819H447.619V206.805H451.925V213.819H459.064Z" fill="#098FC8"/>
<path d="M87.8916 519.155V523.248H80.753V530.185H76.4475V523.248H69.4258V519.155H76.4475V512.141H80.753V519.155H87.8916Z" fill="#098FC8"/>
<path d="M459.064 519.155V523.248H451.925V530.185H447.619V523.248H440.598V519.155H447.619V512.141H451.925V519.155H459.064Z" fill="#098FC8"/>
<path d="M136.034 177.729V181.822H128.896V188.76H124.59V181.822H117.568V177.729H124.59V170.715H128.896V177.729H136.034Z" fill="#098FC8"/>
<path d="M507.206 177.729V181.822H500.067V188.76H495.762V181.822H488.74V177.729H495.762V170.715H500.067V177.729H507.206Z" fill="#098FC8"/>
<path d="M136.034 483.065V487.158H128.896V494.096H124.59V487.158H117.568V483.065H124.59V476.051H128.896V483.065H136.034Z" fill="#098FC8"/>
<path d="M507.206 483.065V487.158H500.067V494.096H495.762V487.158H488.74V483.065H495.762V476.051H500.067V483.065H507.206Z" fill="#098FC8"/>
<path d="M41.6065 177.729V181.822H34.4679V188.76H30.1624V181.822H23.1406V177.729H30.1624V170.715H34.4679V177.729H41.6065Z" fill="#098FC8"/>
<path d="M412.778 177.729V181.822H405.64V188.76H401.334V181.822H394.312V177.729H401.334V170.715H405.64V177.729H412.778Z" fill="#098FC8"/>
<path d="M41.6065 483.065V487.158H34.4679V494.096H30.1624V487.158H23.1406V483.065H30.1624V476.051H34.4679V483.065H41.6065Z" fill="#098FC8"/>
<path d="M412.778 483.065V487.158H405.64V494.096H401.334V487.158H394.312V483.065H401.334V476.051H405.64V483.065H412.778Z" fill="#098FC8"/>
<path d="M182.319 177.729V181.822H175.181V188.76H170.875V181.822H163.854V177.729H170.875V170.715H175.181V177.729H182.319Z" fill="#098FC8"/>
<path d="M553.491 177.729V181.822H546.353V188.76H542.047V181.822H535.025V177.729H542.047V170.715H546.353V177.729H553.491Z" fill="#098FC8"/>
<path d="M182.319 483.065V487.158H175.181V494.096H170.875V487.158H163.854V483.065H170.875V476.051H175.181V483.065H182.319Z" fill="#098FC8"/>
<path d="M553.491 483.065V487.158H546.353V494.096H542.047V487.158H535.025V483.065H542.047V476.051H546.353V483.065H553.491Z" fill="#098FC8"/>
<path d="M87.8916 177.729V181.822H80.753V188.76H76.4475V181.822H69.4258V177.729H76.4475V170.715H80.753V177.729H87.8916Z" fill="#098FC8"/>
<path d="M459.064 177.729V181.822H451.925V188.76H447.619V181.822H440.598V177.729H447.619V170.715H451.925V177.729H459.064Z" fill="#098FC8"/>
<path d="M87.8916 483.065V487.158H80.753V494.096H76.4475V487.158H69.4258V483.065H76.4475V476.051H80.753V483.065H87.8916Z" fill="#098FC8"/>
<path d="M459.064 483.065V487.158H451.925V494.096H447.619V487.158H440.598V483.065H447.619V476.051H451.925V483.065H459.064Z" fill="#098FC8"/>
<path d="M112.892 276.26V280.353H105.753V287.291H101.448V280.353H94.4258V276.26H101.448V269.246H105.753V276.26H112.892Z" fill="#098FC8"/>
<path d="M484.064 276.26V280.353H476.925V287.291H472.619V280.353H465.598V276.26H472.619V269.246H476.925V276.26H484.064Z" fill="#098FC8"/>
<path d="M112.892 581.6V585.693H105.753V592.631H101.448V585.693H94.4258V581.6H101.448V574.586H105.753V581.6H112.892Z" fill="#098FC8"/>
<path d="M484.064 581.6V585.693H476.925V592.631H472.619V585.693H465.598V581.6H472.619V574.586H476.925V581.6H484.064Z" fill="#098FC8"/>
<path d="M18.4659 276.264V280.357H11.3273V287.295H7.02177V280.357H0V276.264H7.02177V269.25H11.3273V276.264H18.4659Z" fill="#098FC8"/>
<path d="M389.638 276.264V280.357H382.499V287.295H378.194V280.357H371.172V276.264H378.194V269.25H382.499V276.264H389.638Z" fill="#098FC8"/>
<path d="M18.4659 581.6V585.693H11.3273V592.631H7.02177V585.693H0V581.6H7.02177V574.586H11.3273V581.6H18.4659Z" fill="#098FC8"/>
<path d="M389.638 581.6V585.693H382.499V592.631H378.194V585.693H371.172V581.6H378.194V574.586H382.499V581.6H389.638Z" fill="#098FC8"/>
<path d="M159.177 276.26V280.353H152.038V287.291H147.733V280.353H140.711V276.26H147.733V269.246H152.038V276.26H159.177Z" fill="#098FC8"/>
<path d="M530.349 276.26V280.353H523.21V287.291H518.905V280.353H511.883V276.26H518.905V269.246H523.21V276.26H530.349Z" fill="#098FC8"/>
<path d="M159.177 581.6V585.693H152.038V592.631H147.733V585.693H140.711V581.6H147.733V574.586H152.038V581.6H159.177Z" fill="#098FC8"/>
<path d="M530.349 581.6V585.693H523.21V592.631H518.905V585.693H511.883V581.6H518.905V574.586H523.21V581.6H530.349Z" fill="#098FC8"/>
<path d="M64.7491 276.26V280.353H57.6105V287.291H53.305V280.353H46.2832V276.26H53.305V269.246H57.6105V276.26H64.7491Z" fill="#098FC8"/>
<path d="M435.921 276.26V280.353H428.782V287.291H424.477V280.353H417.455V276.26H424.477V269.246H428.782V276.26H435.921Z" fill="#098FC8"/>
<path d="M64.7491 581.6V585.693H57.6105V592.631H53.305V585.693H46.2832V581.6H53.305V574.586H57.6105V581.6H64.7491Z" fill="#098FC8"/>
<path d="M435.921 581.6V585.693H428.782V592.631H424.477V585.693H417.455V581.6H424.477V574.586H428.782V581.6H435.921Z" fill="#098FC8"/>
<path d="M112.892 240.17V244.263H105.753V251.201H101.448V244.263H94.4258V240.17H101.448V233.156H105.753V240.17H112.892Z" fill="#098FC8"/>
<path d="M484.064 240.17V244.263H476.925V251.201H472.619V244.263H465.598V240.17H472.619V233.156H476.925V240.17H484.064Z" fill="#098FC8"/>
<path d="M112.892 545.51V549.603H105.753V556.541H101.448V549.603H94.4258V545.51H101.448V538.496H105.753V545.51H112.892Z" fill="#098FC8"/>
<path d="M484.064 545.51V549.603H476.925V556.541H472.619V549.603H465.598V545.51H472.619V538.496H476.925V545.51H484.064Z" fill="#098FC8"/>
<path d="M18.4659 240.17V244.263H11.3273V251.201H7.02177V244.263H0V240.17H7.02177V233.156H11.3273V240.17H18.4659Z" fill="#098FC8"/>
<path d="M389.638 240.17V244.263H382.499V251.201H378.194V244.263H371.172V240.17H378.194V233.156H382.499V240.17H389.638Z" fill="#098FC8"/>
<path d="M18.4659 545.51V549.603H11.3273V556.541H7.02177V549.603H0V545.51H7.02177V538.496H11.3273V545.51H18.4659Z" fill="#098FC8"/>
<path d="M389.638 545.51V549.603H382.499V556.541H378.194V549.603H371.172V545.51H378.194V538.496H382.499V545.51H389.638Z" fill="#098FC8"/>
<path d="M159.177 240.17V244.263H152.038V251.201H147.733V244.263H140.711V240.17H147.733V233.156H152.038V240.17H159.177Z" fill="#098FC8"/>
<path d="M530.349 240.17V244.263H523.21V251.201H518.905V244.263H511.883V240.17H518.905V233.156H523.21V240.17H530.349Z" fill="#098FC8"/>
<path d="M159.177 545.51V549.603H152.038V556.541H147.733V549.603H140.711V545.51H147.733V538.496H152.038V545.51H159.177Z" fill="#098FC8"/>
<path d="M530.349 545.51V549.603H523.21V556.541H518.905V549.603H511.883V545.51H518.905V538.496H523.21V545.51H530.349Z" fill="#098FC8"/>
<path d="M64.7491 240.17V244.263H57.6105V251.201H53.305V244.263H46.2832V240.17H53.305V233.156H57.6105V240.17H64.7491Z" fill="#098FC8"/>
<path d="M435.921 240.17V244.263H428.782V251.201H424.477V244.263H417.455V240.17H424.477V233.156H428.782V240.17H435.921Z" fill="#098FC8"/>
<path d="M64.7491 545.51V549.603H57.6105V556.541H53.305V549.603H46.2832V545.51H53.305V538.496H57.6105V545.51H64.7491Z" fill="#098FC8"/>
<path d="M435.921 545.51V549.603H428.782V556.541H424.477V549.603H417.455V545.51H424.477V538.496H428.782V545.51H435.921Z" fill="#098FC8"/>
<path d="M136.034 294.307V298.4H128.896V305.338H124.59V298.4H117.568V294.307H124.59V287.293H128.896V294.307H136.034Z" fill="#098FC8"/>
<path d="M507.206 294.307V298.4H500.067V305.338H495.762V298.4H488.74V294.307H495.762V287.293H500.067V294.307H507.206Z" fill="#098FC8"/>
<path d="M136.034 599.643V603.736H128.896V610.674H124.59V603.736H117.568V599.643H124.59V592.629H128.896V599.643H136.034Z" fill="#098FC8"/>
<path d="M507.206 599.643V603.736H500.067V610.674H495.762V603.736H488.74V599.643H495.762V592.629H500.067V599.643H507.206Z" fill="#098FC8"/>
<path d="M41.6065 294.307V298.4H34.4679V305.338H30.1624V298.4H23.1406V294.307H30.1624V287.293H34.4679V294.307H41.6065Z" fill="#098FC8"/>
<path d="M412.778 294.307V298.4H405.64V305.338H401.334V298.4H394.312V294.307H401.334V287.293H405.64V294.307H412.778Z" fill="#098FC8"/>
<path d="M41.6065 599.643V603.736H34.4679V610.674H30.1624V603.736H23.1406V599.643H30.1624V592.629H34.4679V599.643H41.6065Z" fill="#098FC8"/>
<path d="M412.778 599.643V603.736H405.64V610.674H401.334V603.736H394.312V599.643H401.334V592.629H405.64V599.643H412.778Z" fill="#098FC8"/>
<path d="M182.319 294.307V298.4H175.181V305.338H170.875V298.4H163.854V294.307H170.875V287.293H175.181V294.307H182.319Z" fill="#098FC8"/>
<path d="M553.491 294.307V298.4H546.353V305.338H542.047V298.4H535.025V294.307H542.047V287.293H546.353V294.307H553.491Z" fill="#098FC8"/>
<path d="M182.319 599.643V603.736H175.181V610.674H170.875V603.736H163.854V599.643H170.875V592.629H175.181V599.643H182.319Z" fill="#098FC8"/>
<path d="M553.491 599.643V603.736H546.353V610.674H542.047V603.736H535.025V599.643H542.047V592.629H546.353V599.643H553.491Z" fill="#098FC8"/>
<path d="M87.8916 294.307V298.4H80.753V305.338H76.4475V298.4H69.4258V294.307H76.4475V287.293H80.753V294.307H87.8916Z" fill="#098FC8"/>
<path d="M459.064 294.307V298.4H451.925V305.338H447.619V298.4H440.598V294.307H447.619V287.293H451.925V294.307H459.064Z" fill="#098FC8"/>
<path d="M87.8916 599.643V603.736H80.753V610.674H76.4475V603.736H69.4258V599.643H76.4475V592.629H80.753V599.643H87.8916Z" fill="#098FC8"/>
<path d="M459.064 599.643V603.736H451.925V610.674H447.619V603.736H440.598V599.643H447.619V592.629H451.925V599.643H459.064Z" fill="#098FC8"/>
<path d="M136.034 258.217V262.31H128.896V269.248H124.59V262.31H117.568V258.217H124.59V251.203H128.896V258.217H136.034Z" fill="#098FC8"/>
<path d="M507.206 258.217V262.31H500.067V269.248H495.762V262.31H488.74V258.217H495.762V251.203H500.067V258.217H507.206Z" fill="#098FC8"/>
<path d="M136.034 563.553V567.646H128.896V574.584H124.59V567.646H117.568V563.553H124.59V556.539H128.896V563.553H136.034Z" fill="#098FC8"/>
<path d="M507.206 563.553V567.646H500.067V574.584H495.762V567.646H488.74V563.553H495.762V556.539H500.067V563.553H507.206Z" fill="#098FC8"/>
<path d="M41.6065 258.217V262.31H34.4679V269.248H30.1624V262.31H23.1406V258.217H30.1624V251.203H34.4679V258.217H41.6065Z" fill="#098FC8"/>
<path d="M412.778 258.217V262.31H405.64V269.248H401.334V262.31H394.312V258.217H401.334V251.203H405.64V258.217H412.778Z" fill="#098FC8"/>
<path d="M41.6065 563.553V567.646H34.4679V574.584H30.1624V567.646H23.1406V563.553H30.1624V556.539H34.4679V563.553H41.6065Z" fill="#098FC8"/>
<path d="M412.778 563.553V567.646H405.64V574.584H401.334V567.646H394.312V563.553H401.334V556.539H405.64V563.553H412.778Z" fill="#098FC8"/>
<path d="M182.319 258.217V262.31H175.181V269.248H170.875V262.31H163.854V258.217H170.875V251.203H175.181V258.217H182.319Z" fill="#098FC8"/>
<path d="M553.491 258.217V262.31H546.353V269.248H542.047V262.31H535.025V258.217H542.047V251.203H546.353V258.217H553.491Z" fill="#098FC8"/>
<path d="M182.319 563.553V567.646H175.181V574.584H170.875V567.646H163.854V563.553H170.875V556.539H175.181V563.553H182.319Z" fill="#098FC8"/>
<path d="M553.491 563.553V567.646H546.353V574.584H542.047V567.646H535.025V563.553H542.047V556.539H546.353V563.553H553.491Z" fill="#098FC8"/>
<path d="M87.8916 258.217V262.31H80.753V269.248H76.4475V262.31H69.4258V258.217H76.4475V251.203H80.753V258.217H87.8916Z" fill="#098FC8"/>
<path d="M459.064 258.217V262.31H451.925V269.248H447.619V262.31H440.598V258.217H447.619V251.203H451.925V258.217H459.064Z" fill="#098FC8"/>
<path d="M87.8916 563.553V567.646H80.753V574.584H76.4475V567.646H69.4258V563.553H76.4475V556.539H80.753V563.553H87.8916Z" fill="#098FC8"/>
<path d="M459.064 563.553V567.646H451.925V574.584H447.619V567.646H440.598V563.553H447.619V556.539H451.925V563.553H459.064Z" fill="#098FC8"/>
<path d="M301.747 195.772V199.865H294.609V206.803H290.303V199.865H283.281V195.772H290.303V188.758H294.609V195.772H301.747Z" fill="#098FC8"/>
<path d="M672.919 195.772V199.865H665.78V206.803H661.475V199.865H654.453V195.772H661.475V188.758H665.78V195.772H672.919Z" fill="#098FC8"/>
<path d="M301.747 501.112V505.205H294.609V512.143H290.303V505.205H283.281V501.112H290.303V494.098H294.609V501.112H301.747Z" fill="#098FC8"/>
<path d="M672.919 501.112V505.205H665.78V512.143H661.475V505.205H654.453V501.112H661.475V494.098H665.78V501.112H672.919Z" fill="#098FC8"/>
<path d="M207.319 195.772V199.865H200.181V206.803H195.875V199.865H188.854V195.772H195.875V188.758H200.181V195.772H207.319Z" fill="#098FC8"/>
<path d="M578.491 195.772V199.865H571.353V206.803H567.047V199.865H560.025V195.772H567.047V188.758H571.353V195.772H578.491Z" fill="#098FC8"/>
<path d="M207.319 501.112V505.205H200.181V512.143H195.875V505.205H188.854V501.112H195.875V494.098H200.181V501.112H207.319Z" fill="#098FC8"/>
<path d="M578.491 501.112V505.205H571.353V512.143H567.047V505.205H560.025V501.112H567.047V494.098H571.353V501.112H578.491Z" fill="#098FC8"/>
<path d="M348.03 195.772V199.865H340.892V206.803H336.586V199.865H329.564V195.772H336.586V188.758H340.892V195.772H348.03Z" fill="#098FC8"/>
<path d="M719.202 195.772V199.865H712.064V206.803H707.758V199.865H700.736V195.772H707.758V188.758H712.064V195.772H719.202Z" fill="#098FC8"/>
<path d="M348.03 501.112V505.205H340.892V512.143H336.586V505.205H329.564V501.112H336.586V494.098H340.892V501.112H348.03Z" fill="#098FC8"/>
<path d="M719.202 501.112V505.205H712.064V512.143H707.758V505.205H700.736V501.112H707.758V494.098H712.064V501.112H719.202Z" fill="#098FC8"/>
<path d="M253.605 195.772V199.865H246.466V206.803H242.16V199.865H235.139V195.772H242.16V188.758H246.466V195.772H253.605Z" fill="#098FC8"/>
<path d="M624.776 195.772V199.865H617.638V206.803H613.332V199.865H606.311V195.772H613.332V188.758H617.638V195.772H624.776Z" fill="#098FC8"/>
<path d="M253.605 501.112V505.205H246.466V512.143H242.16V505.205H235.139V501.112H242.16V494.098H246.466V501.112H253.605Z" fill="#098FC8"/>
<path d="M624.776 501.112V505.205H617.638V512.143H613.332V505.205H606.311V501.112H613.332V494.098H617.638V501.112H624.776Z" fill="#098FC8"/>
<path d="M301.747 159.682V163.775H294.609V170.713H290.303V163.775H283.281V159.682H290.303V152.668H294.609V159.682H301.747Z" fill="#098FC8"/>
<path d="M672.919 159.682V163.775H665.78V170.713H661.475V163.775H654.453V159.682H661.475V152.668H665.78V159.682H672.919Z" fill="#098FC8"/>
<path d="M301.747 465.022V469.115H294.609V476.053H290.303V469.115H283.281V465.022H290.303V458.008H294.609V465.022H301.747Z" fill="#098FC8"/>
<path d="M672.919 465.022V469.115H665.78V476.053H661.475V469.115H654.453V465.022H661.475V458.008H665.78V465.022H672.919Z" fill="#098FC8"/>
<path d="M207.319 159.682V163.775H200.181V170.713H195.875V163.775H188.854V159.682H195.875V152.668H200.181V159.682H207.319Z" fill="#098FC8"/>
<path d="M578.491 159.682V163.775H571.353V170.713H567.047V163.775H560.025V159.682H567.047V152.668H571.353V159.682H578.491Z" fill="#098FC8"/>
<path d="M207.319 465.022V469.115H200.181V476.053H195.875V469.115H188.854V465.022H195.875V458.008H200.181V465.022H207.319Z" fill="#098FC8"/>
<path d="M578.491 465.022V469.115H571.353V476.053H567.047V469.115H560.025V465.022H567.047V458.008H571.353V465.022H578.491Z" fill="#098FC8"/>
<path d="M348.03 159.682V163.775H340.892V170.713H336.586V163.775H329.564V159.682H336.586V152.668H340.892V159.682H348.03Z" fill="#098FC8"/>
<path d="M719.202 159.682V163.775H712.064V170.713H707.758V163.775H700.736V159.682H707.758V152.668H712.064V159.682H719.202Z" fill="#098FC8"/>
<path d="M348.03 465.022V469.115H340.892V476.053H336.586V469.115H329.564V465.022H336.586V458.008H340.892V465.022H348.03Z" fill="#098FC8"/>
<path d="M719.202 465.022V469.115H712.064V476.053H707.758V469.115H700.736V465.022H707.758V458.008H712.064V465.022H719.202Z" fill="#098FC8"/>
<path d="M253.605 159.682V163.775H246.466V170.713H242.16V163.775H235.139V159.682H242.16V152.668H246.466V159.682H253.605Z" fill="#098FC8"/>
<path d="M624.776 159.682V163.775H617.638V170.713H613.332V163.775H606.311V159.682H613.332V152.668H617.638V159.682H624.776Z" fill="#098FC8"/>
<path d="M253.605 465.022V469.115H246.466V476.053H242.16V469.115H235.139V465.022H242.16V458.008H246.466V465.022H253.605Z" fill="#098FC8"/>
<path d="M624.776 465.022V469.115H617.638V476.053H613.332V469.115H606.311V465.022H613.332V458.008H617.638V465.022H624.776Z" fill="#098FC8"/>
<path d="M324.89 213.819V217.912H317.751V224.85H313.446V217.912H306.424V213.819H313.446V206.805H317.751V213.819H324.89Z" fill="#098FC8"/>
<path d="M696.062 213.819V217.912H688.923V224.85H684.617V217.912H677.596V213.819H684.617V206.805H688.923V213.819H696.062Z" fill="#098FC8"/>
<path d="M324.89 519.155V523.248H317.751V530.185H313.446V523.248H306.424V519.155H313.446V512.141H317.751V519.155H324.89Z" fill="#098FC8"/>
<path d="M696.062 519.155V523.248H688.923V530.185H684.617V523.248H677.596V519.155H684.617V512.141H688.923V519.155H696.062Z" fill="#098FC8"/>
<path d="M230.462 213.819V217.912H223.323V224.85H219.018V217.912H211.996V213.819H219.018V206.805H223.323V213.819H230.462Z" fill="#098FC8"/>
<path d="M601.634 213.819V217.912H594.495V224.85H590.19V217.912H583.168V213.819H590.19V206.805H594.495V213.819H601.634Z" fill="#098FC8"/>
<path d="M230.462 519.155V523.248H223.323V530.185H219.018V523.248H211.996V519.155H219.018V512.141H223.323V519.155H230.462Z" fill="#098FC8"/>
<path d="M601.634 519.155V523.248H594.495V530.185H590.19V523.248H583.168V519.155H590.19V512.141H594.495V519.155H601.634Z" fill="#098FC8"/>
<path d="M371.171 213.819V217.912H364.032V224.85H359.727V217.912H352.705V213.819H359.727V206.805H364.032V213.819H371.171Z" fill="#098FC8"/>
<path d="M742.343 213.819V217.912H735.204V224.85H730.899V217.912H723.877V213.819H730.899V206.805H735.204V213.819H742.343Z" fill="#098FC8"/>
<path d="M371.171 519.155V523.248H364.032V530.185H359.727V523.248H352.705V519.155H359.727V512.141H364.032V519.155H371.171Z" fill="#098FC8"/>
<path d="M742.343 519.155V523.248H735.204V530.185H730.899V523.248H723.877V519.155H730.899V512.141H735.204V519.155H742.343Z" fill="#098FC8"/>
<path d="M276.745 213.819V217.912H269.607V224.85H265.301V217.912H258.279V213.819H265.301V206.805H269.607V213.819H276.745Z" fill="#098FC8"/>
<path d="M647.917 213.819V217.912H640.778V224.85H636.473V217.912H629.451V213.819H636.473V206.805H640.778V213.819H647.917Z" fill="#098FC8"/>
<path d="M276.745 519.155V523.248H269.607V530.185H265.301V523.248H258.279V519.155H265.301V512.141H269.607V519.155H276.745Z" fill="#098FC8"/>
<path d="M647.917 519.155V523.248H640.778V530.185H636.473V523.248H629.451V519.155H636.473V512.141H640.778V519.155H647.917Z" fill="#098FC8"/>
<path d="M324.89 177.729V181.822H317.751V188.76H313.446V181.822H306.424V177.729H313.446V170.715H317.751V177.729H324.89Z" fill="#098FC8"/>
<path d="M696.062 177.729V181.822H688.923V188.76H684.617V181.822H677.596V177.729H684.617V170.715H688.923V177.729H696.062Z" fill="#098FC8"/>
<path d="M324.89 483.065V487.158H317.751V494.096H313.446V487.158H306.424V483.065H313.446V476.051H317.751V483.065H324.89Z" fill="#098FC8"/>
<path d="M696.062 483.065V487.158H688.923V494.096H684.617V487.158H677.596V483.065H684.617V476.051H688.923V483.065H696.062Z" fill="#098FC8"/>
<path d="M230.462 177.729V181.822H223.323V188.76H219.018V181.822H211.996V177.729H219.018V170.715H223.323V177.729H230.462Z" fill="#098FC8"/>
<path d="M601.634 177.729V181.822H594.495V188.76H590.19V181.822H583.168V177.729H590.19V170.715H594.495V177.729H601.634Z" fill="#098FC8"/>
<path d="M230.462 483.065V487.158H223.323V494.096H219.018V487.158H211.996V483.065H219.018V476.051H223.323V483.065H230.462Z" fill="#098FC8"/>
<path d="M601.634 483.065V487.158H594.495V494.096H590.19V487.158H583.168V483.065H590.19V476.051H594.495V483.065H601.634Z" fill="#098FC8"/>
<path d="M371.171 177.729V181.822H364.032V188.76H359.727V181.822H352.705V177.729H359.727V170.715H364.032V177.729H371.171Z" fill="#098FC8"/>
<path d="M742.343 177.729V181.822H735.204V188.76H730.899V181.822H723.877V177.729H730.899V170.715H735.204V177.729H742.343Z" fill="#098FC8"/>
<path d="M371.171 483.065V487.158H364.032V494.096H359.727V487.158H352.705V483.065H359.727V476.051H364.032V483.065H371.171Z" fill="#098FC8"/>
<path d="M742.343 483.065V487.158H735.204V494.096H730.899V487.158H723.877V483.065H730.899V476.051H735.204V483.065H742.343Z" fill="#098FC8"/>
<path d="M276.745 177.729V181.822H269.607V188.76H265.301V181.822H258.279V177.729H265.301V170.715H269.607V177.729H276.745Z" fill="#098FC8"/>
<path d="M647.917 177.729V181.822H640.778V188.76H636.473V181.822H629.451V177.729H636.473V170.715H640.778V177.729H647.917Z" fill="#098FC8"/>
<path d="M276.745 483.065V487.158H269.607V494.096H265.301V487.158H258.279V483.065H265.301V476.051H269.607V483.065H276.745Z" fill="#098FC8"/>
<path d="M647.917 483.065V487.158H640.778V494.096H636.473V487.158H629.451V483.065H636.473V476.051H640.778V483.065H647.917Z" fill="#098FC8"/>
<path d="M301.747 276.26V280.353H294.609V287.291H290.303V280.353H283.281V276.26H290.303V269.246H294.609V276.26H301.747Z" fill="#098FC8"/>
<path d="M672.919 276.26V280.353H665.78V287.291H661.475V280.353H654.453V276.26H661.475V269.246H665.78V276.26H672.919Z" fill="#098FC8"/>
<path d="M301.747 581.6V585.693H294.609V592.631H290.303V585.693H283.281V581.6H290.303V574.586H294.609V581.6H301.747Z" fill="#098FC8"/>
<path d="M672.919 581.6V585.693H665.78V592.631H661.475V585.693H654.453V581.6H661.475V574.586H665.78V581.6H672.919Z" fill="#098FC8"/>
<path d="M207.319 276.26V280.353H200.181V287.291H195.875V280.353H188.854V276.26H195.875V269.246H200.181V276.26H207.319Z" fill="#098FC8"/>
<path d="M578.491 276.26V280.353H571.353V287.291H567.047V280.353H560.025V276.26H567.047V269.246H571.353V276.26H578.491Z" fill="#098FC8"/>
<path d="M207.319 581.6V585.693H200.181V592.631H195.875V585.693H188.854V581.6H195.875V574.586H200.181V581.6H207.319Z" fill="#098FC8"/>
<path d="M578.491 581.6V585.693H571.353V592.631H567.047V585.693H560.025V581.6H567.047V574.586H571.353V581.6H578.491Z" fill="#098FC8"/>
<path d="M348.03 276.264V280.357H340.892V287.295H336.586V280.357H329.564V276.264H336.586V269.25H340.892V276.264H348.03Z" fill="#098FC8"/>
<path d="M719.202 276.264V280.357H712.064V287.295H707.758V280.357H700.736V276.264H707.758V269.25H712.064V276.264H719.202Z" fill="#098FC8"/>
<path d="M348.03 581.6V585.693H340.892V592.631H336.586V585.693H329.564V581.6H336.586V574.586H340.892V581.6H348.03Z" fill="#098FC8"/>
<path d="M719.202 581.6V585.693H712.064V592.631H707.758V585.693H700.736V581.6H707.758V574.586H712.064V581.6H719.202Z" fill="#098FC8"/>
<path d="M253.605 276.26V280.353H246.466V287.291H242.16V280.353H235.139V276.26H242.16V269.246H246.466V276.26H253.605Z" fill="#098FC8"/>
<path d="M624.776 276.26V280.353H617.638V287.291H613.332V280.353H606.311V276.26H613.332V269.246H617.638V276.26H624.776Z" fill="#098FC8"/>
<path d="M253.605 581.6V585.693H246.466V592.631H242.16V585.693H235.139V581.6H242.16V574.586H246.466V581.6H253.605Z" fill="#098FC8"/>
<path d="M624.776 581.6V585.693H617.638V592.631H613.332V585.693H606.311V581.6H613.332V574.586H617.638V581.6H624.776Z" fill="#098FC8"/>
<path d="M301.747 240.17V244.263H294.609V251.201H290.303V244.263H283.281V240.17H290.303V233.156H294.609V240.17H301.747Z" fill="#098FC8"/>
<path d="M672.919 240.17V244.263H665.78V251.201H661.475V244.263H654.453V240.17H661.475V233.156H665.78V240.17H672.919Z" fill="#098FC8"/>
<path d="M301.747 545.51V549.603H294.609V556.541H290.303V549.603H283.281V545.51H290.303V538.496H294.609V545.51H301.747Z" fill="#098FC8"/>
<path d="M672.919 545.51V549.603H665.78V556.541H661.475V549.603H654.453V545.51H661.475V538.496H665.78V545.51H672.919Z" fill="#098FC8"/>
<path d="M207.319 240.17V244.263H200.181V251.201H195.875V244.263H188.854V240.17H195.875V233.156H200.181V240.17H207.319Z" fill="#098FC8"/>
<path d="M578.491 240.17V244.263H571.353V251.201H567.047V244.263H560.025V240.17H567.047V233.156H571.353V240.17H578.491Z" fill="#098FC8"/>
<path d="M207.319 545.51V549.603H200.181V556.541H195.875V549.603H188.854V545.51H195.875V538.496H200.181V545.51H207.319Z" fill="#098FC8"/>
<path d="M578.491 545.51V549.603H571.353V556.541H567.047V549.603H560.025V545.51H567.047V538.496H571.353V545.51H578.491Z" fill="#098FC8"/>
<path d="M348.03 240.17V244.263H340.892V251.201H336.586V244.263H329.564V240.17H336.586V233.156H340.892V240.17H348.03Z" fill="#098FC8"/>
<path d="M719.202 240.17V244.263H712.064V251.201H707.758V244.263H700.736V240.17H707.758V233.156H712.064V240.17H719.202Z" fill="#098FC8"/>
<path d="M348.03 545.51V549.603H340.892V556.541H336.586V549.603H329.564V545.51H336.586V538.496H340.892V545.51H348.03Z" fill="#098FC8"/>
<path d="M719.202 545.51V549.603H712.064V556.541H707.758V549.603H700.736V545.51H707.758V538.496H712.064V545.51H719.202Z" fill="#098FC8"/>
<path d="M253.605 240.17V244.263H246.466V251.201H242.16V244.263H235.139V240.17H242.16V233.156H246.466V240.17H253.605Z" fill="#098FC8"/>
<path d="M624.776 240.17V244.263H617.638V251.201H613.332V244.263H606.311V240.17H613.332V233.156H617.638V240.17H624.776Z" fill="#098FC8"/>
<path d="M253.605 545.51V549.603H246.466V556.541H242.16V549.603H235.139V545.51H242.16V538.496H246.466V545.51H253.605Z" fill="#098FC8"/>
<path d="M624.776 545.51V549.603H617.638V556.541H613.332V549.603H606.311V545.51H613.332V538.496H617.638V545.51H624.776Z" fill="#098FC8"/>
<path d="M324.89 294.307V298.4H317.751V305.338H313.446V298.4H306.424V294.307H313.446V287.293H317.751V294.307H324.89Z" fill="#098FC8"/>
<path d="M696.062 294.307V298.4H688.923V305.338H684.617V298.4H677.596V294.307H684.617V287.293H688.923V294.307H696.062Z" fill="#098FC8"/>
<path d="M324.89 599.643V603.736H317.751V610.674H313.446V603.736H306.424V599.643H313.446V592.629H317.751V599.643H324.89Z" fill="#098FC8"/>
<path d="M696.062 599.643V603.736H688.923V610.674H684.617V603.736H677.596V599.643H684.617V592.629H688.923V599.643H696.062Z" fill="#098FC8"/>
<path d="M230.462 294.307V298.4H223.323V305.338H219.018V298.4H211.996V294.307H219.018V287.293H223.323V294.307H230.462Z" fill="#098FC8"/>
<path d="M601.634 294.307V298.4H594.495V305.338H590.19V298.4H583.168V294.307H590.19V287.293H594.495V294.307H601.634Z" fill="#098FC8"/>
<path d="M230.462 599.643V603.736H223.323V610.674H219.018V603.736H211.996V599.643H219.018V592.629H223.323V599.643H230.462Z" fill="#098FC8"/>
<path d="M601.634 599.643V603.736H594.495V610.674H590.19V603.736H583.168V599.643H590.19V592.629H594.495V599.643H601.634Z" fill="#098FC8"/>
<path d="M371.171 294.307V298.4H364.032V305.338H359.727V298.4H352.705V294.307H359.727V287.293H364.032V294.307H371.171Z" fill="#098FC8"/>
<path d="M742.343 294.307V298.4H735.204V305.338H730.899V298.4H723.877V294.307H730.899V287.293H735.204V294.307H742.343Z" fill="#098FC8"/>
<path d="M371.171 599.643V603.736H364.032V610.674H359.727V603.736H352.705V599.643H359.727V592.629H364.032V599.643H371.171Z" fill="#098FC8"/>
<path d="M742.343 599.643V603.736H735.204V610.674H730.899V603.736H723.877V599.643H730.899V592.629H735.204V599.643H742.343Z" fill="#098FC8"/>
<path d="M276.745 294.307V298.4H269.607V305.338H265.301V298.4H258.279V294.307H265.301V287.293H269.607V294.307H276.745Z" fill="#098FC8"/>
<path d="M647.917 294.307V298.4H640.778V305.338H636.473V298.4H629.451V294.307H636.473V287.293H640.778V294.307H647.917Z" fill="#098FC8"/>
<path d="M276.745 599.643V603.736H269.607V610.674H265.301V603.736H258.279V599.643H265.301V592.629H269.607V599.643H276.745Z" fill="#098FC8"/>
<path d="M647.917 599.643V603.736H640.778V610.674H636.473V603.736H629.451V599.643H636.473V592.629H640.778V599.643H647.917Z" fill="#098FC8"/>
<path d="M324.89 258.217V262.31H317.751V269.248H313.446V262.31H306.424V258.217H313.446V251.203H317.751V258.217H324.89Z" fill="#098FC8"/>
<path d="M696.062 258.217V262.31H688.923V269.248H684.617V262.31H677.596V258.217H684.617V251.203H688.923V258.217H696.062Z" fill="#098FC8"/>
<path d="M324.89 563.553V567.646H317.751V574.584H313.446V567.646H306.424V563.553H313.446V556.539H317.751V563.553H324.89Z" fill="#098FC8"/>
<path d="M696.062 563.553V567.646H688.923V574.584H684.617V567.646H677.596V563.553H684.617V556.539H688.923V563.553H696.062Z" fill="#098FC8"/>
<path d="M230.462 258.217V262.31H223.323V269.248H219.018V262.31H211.996V258.217H219.018V251.203H223.323V258.217H230.462Z" fill="#098FC8"/>
<path d="M601.634 258.217V262.31H594.495V269.248H590.19V262.31H583.168V258.217H590.19V251.203H594.495V258.217H601.634Z" fill="#098FC8"/>
<path d="M230.462 563.553V567.646H223.323V574.584H219.018V567.646H211.996V563.553H219.018V556.539H223.323V563.553H230.462Z" fill="#098FC8"/>
<path d="M601.634 563.553V567.646H594.495V574.584H590.19V567.646H583.168V563.553H590.19V556.539H594.495V563.553H601.634Z" fill="#098FC8"/>
<path d="M371.171 258.217V262.31H364.032V269.248H359.727V262.31H352.705V258.217H359.727V251.203H364.032V258.217H371.171Z" fill="#098FC8"/>
<path d="M742.343 258.217V262.31H735.204V269.248H730.899V262.31H723.877V258.217H730.899V251.203H735.204V258.217H742.343Z" fill="#098FC8"/>
<path d="M371.171 563.553V567.646H364.032V574.584H359.727V567.646H352.705V563.553H359.727V556.539H364.032V563.553H371.171Z" fill="#098FC8"/>
<path d="M742.343 563.553V567.646H735.204V574.584H730.899V567.646H723.877V563.553H730.899V556.539H735.204V563.553H742.343Z" fill="#098FC8"/>
<path d="M276.745 258.217V262.31H269.607V269.248H265.301V262.31H258.279V258.217H265.301V251.203H269.607V258.217H276.745Z" fill="#098FC8"/>
<path d="M647.917 258.217V262.31H640.778V269.248H636.473V262.31H629.451V258.217H636.473V251.203H640.778V258.217H647.917Z" fill="#098FC8"/>
<path d="M276.745 563.553V567.646H269.607V574.584H265.301V567.646H258.279V563.553H265.301V556.539H269.607V563.553H276.745Z" fill="#098FC8"/>
<path d="M647.917 563.553V567.646H640.778V574.584H636.473V567.646H629.451V563.553H636.473V556.539H640.778V563.553H647.917Z" fill="#098FC8"/>
</svg>
